<svg width="28" height="28" viewBox="0 0 28 28" fill="none" xmlns="http://www.w3.org/2000/svg">
<path d="M9.1875 14C10.4639 14 11.6879 13.493 12.5905 12.5905C13.493 11.6879 14 10.4639 14 9.1875C14 7.91115 13.493 6.68707 12.5905 5.78455C11.6879 4.88203 10.4639 4.375 9.1875 4.375C7.91115 4.375 6.68707 4.88203 5.78455 5.78455C4.88203 6.68707 4.375 7.91115 4.375 9.1875C4.375 10.4639 4.88203 11.6879 5.78455 12.5905C6.68707 13.493 7.91115 14 9.1875 14ZM20.125 14C21.0533 14 21.9435 13.6313 22.5999 12.9749C23.2563 12.3185 23.625 11.4283 23.625 10.5C23.625 9.57174 23.2563 8.6815 22.5999 8.02513C21.9435 7.36875 21.0533 7 20.125 7C19.1967 7 18.3065 7.36875 17.6501 8.02513C16.9937 8.6815 16.625 9.57174 16.625 10.5C16.625 11.4283 16.9937 12.3185 17.6501 12.9749C18.3065 13.6313 19.1967 14 20.125 14ZM4.375 15.75C3.67881 15.75 3.01113 16.0266 2.51884 16.5188C2.02656 17.0111 1.75 17.6788 1.75 18.375V18.5062C1.75 18.5062 1.75 23.625 9.1875 23.625C16.625 23.625 16.625 18.5062 16.625 18.5062V18.375C16.625 17.6788 16.3484 17.0111 15.8562 16.5188C15.3639 16.0266 14.6962 15.75 14 15.75H4.375ZM20.125 21.875C18.851 21.875 17.843 21.7017 17.0441 21.4261C17.4221 20.8136 17.6391 20.223 17.7616 19.7461C17.8509 19.4034 17.9074 19.053 17.9305 18.6996L17.934 18.606L17.9349 18.5693V18.375C17.9367 17.4063 17.5798 16.4711 16.933 15.75H24.1439C24.4204 15.7499 24.6943 15.8043 24.9498 15.91C25.2053 16.0157 25.4375 16.1708 25.6331 16.3663C25.8287 16.5618 25.9838 16.7939 26.0897 17.0494C26.1955 17.3049 26.25 17.5787 26.25 17.8553C26.25 17.8553 26.25 21.875 20.125 21.875Z" fill="#CC0000"/>
</svg>
