<svg width="40" height="41" viewBox="0 0 40 41" fill="none" xmlns="http://www.w3.org/2000/svg">
<path fill-rule="evenodd" clip-rule="evenodd" d="M33.1655 37.8443L34.5279 35.0503C34.5646 35.0648 34.5364 35.0483 34.5707 35.0742L34.8267 35.3325C34.9252 35.4319 35.0129 35.5213 35.1108 35.6214C35.3001 35.8153 35.499 35.9968 35.6886 36.1899C35.8813 36.3862 36.0647 36.5707 36.2571 36.7678C36.3064 36.8182 36.3561 36.8502 36.4045 36.8996C36.4564 36.9523 36.498 36.9946 36.5504 37.0475C36.6347 37.1326 36.7591 37.2766 36.8469 37.3423C36.94 37.296 37.1683 37.0317 37.261 36.9447C37.4062 36.8084 37.5392 36.6812 37.6842 36.5445L38.5134 35.7381L38.2279 35.4464C38.1298 35.347 38.0423 35.257 37.9438 35.1574C37.8451 35.0575 37.7585 34.9681 37.6594 34.8687L37.3588 34.5816C37.179 34.3985 36.8269 34.0218 36.6441 33.8708L36.2108 33.4242L39.0846 32.141C39.0224 32.0915 34.4945 30.338 34.299 30.262C34.1556 30.2063 29.6453 28.4259 29.5 28.3887L33.1659 37.8439L33.1655 37.8443ZM33.0428 33.565L33.7181 32.6739L34.607 33.7236C34.612 33.6738 33.9932 31.3509 33.8976 31.1222L33.226 32.0126C33.1207 31.8238 33.0436 31.6062 32.9504 31.3995C32.8583 31.1949 32.7755 30.9907 32.6789 30.7956L32.1258 31.5166C32.2314 31.7523 32.9873 33.5028 33.0428 33.5651V33.565Z" fill="white"/>
<path fill-rule="evenodd" clip-rule="evenodd" d="M16.1777 3.94043C24.6065 3.94043 31.4394 10.6394 31.4394 18.9029C31.4394 27.1664 24.6065 33.8654 16.1777 33.8654C7.74892 33.8654 0.916016 27.1664 0.916016 18.9029C0.916016 10.6394 7.74892 3.94043 16.1777 3.94043ZM16.1777 7.79719C22.4339 7.79719 27.5055 12.7694 27.5055 18.9029C27.5055 25.0364 22.4339 30.0086 16.1777 30.0086C9.92159 30.0086 4.84991 25.0364 4.84991 18.9029C4.84991 12.7694 9.92159 7.79719 16.1777 7.79719Z" fill="white"/>
<path d="M16.1779 27.4644C21.0007 27.4644 24.9104 23.6314 24.9104 18.9031C24.9104 14.1748 21.0007 10.3418 16.1779 10.3418C11.355 10.3418 7.44531 14.1748 7.44531 18.9031C7.44531 23.6314 11.355 27.4644 16.1779 27.4644Z" fill="white"/>
<path fill-rule="evenodd" clip-rule="evenodd" d="M14.8823 18.6672H12.8957C12.5367 18.6672 12.2953 18.5571 12.1325 18.3811C11.9866 18.2269 11.8967 18.018 11.8967 17.7923C11.8967 17.5448 12.0033 17.3136 12.1772 17.1542C12.3401 17.0056 12.5532 16.9119 12.8955 16.9119H13.4506V15.9272H12.8955C12.2838 15.9272 11.8293 16.1144 11.4926 16.417C11.1166 16.7581 10.8809 17.2477 10.8809 17.787C10.8809 18.2766 11.0661 18.7167 11.3691 19.0414C11.717 19.4156 12.2166 19.6466 12.8955 19.6466H14.8821V18.6674L14.8823 18.6672ZM13.7501 16.9121H14.8823V15.9274H13.7501V16.9121Z" fill="url(#paint0_linear_736_2809)"/>
<path fill-rule="evenodd" clip-rule="evenodd" d="M13.3594 15.9272V16.9119H13.4512V15.9272H13.3594ZM13.7503 16.9119H15.0261V19.6464H16.0474V16.9119H17.7086V15.9272H13.7503V16.9119Z" fill="url(#paint1_linear_736_2809)"/>
<path fill-rule="evenodd" clip-rule="evenodd" d="M18.2483 18.3262H20.016C20.3134 18.3262 20.4313 18.4198 20.4313 18.6564V19.3992C20.4313 19.4818 20.4369 19.5643 20.4482 19.6467H21.4751C21.4639 19.5422 21.4582 19.4541 21.4582 19.2947V18.5519C21.4582 18.1284 21.3458 17.9302 21.0934 17.7817C21.3627 17.5891 21.4526 17.3084 21.4526 17.0114C21.4526 16.7307 21.3347 16.4723 21.1494 16.2797C20.9419 16.0651 20.6445 15.9277 20.1787 15.9277H17.4849C17.3165 15.9277 17.2324 16.0047 17.2324 16.1589V19.6471H18.2483V18.3266V18.3262ZM18.2483 17.479V16.9399C18.2483 16.8904 18.2763 16.8572 18.3324 16.8572H20.0441C20.1731 16.8572 20.263 16.8956 20.319 16.9563C20.3751 17.0112 20.4031 17.0884 20.4031 17.1654C20.4031 17.2369 20.3751 17.303 20.3302 17.3579C20.2685 17.4295 20.1842 17.479 20.0439 17.479H18.2481H18.2483Z" fill="url(#paint2_linear_736_2809)"/>
<path d="M11.1955 20.3271C10.9865 20.3271 10.8809 20.4282 10.8809 20.6407V22.037H11.3478V21.4653H12.7075V21.0405H11.3478V20.8558C11.3478 20.8052 11.371 20.78 11.42 20.78H12.7152V20.3273H11.1955V20.3271ZM15.8997 21.6248L16.0305 21.6263L15.9431 21.8947C15.9537 21.8877 16.0115 21.8143 16.0192 21.8051C16.0443 21.7741 16.0679 21.7447 16.0929 21.7151L16.2031 21.5813C16.2131 21.5694 16.2332 21.5474 16.2392 21.5346L16.0919 21.531L16.1447 21.3944H16.4047L16.6677 21.9787C16.6756 21.9962 16.6833 22.0141 16.6883 22.0368H17.2146C17.2069 22.0116 17.199 21.9888 17.1861 21.961L16.5566 20.6053C16.4585 20.3928 16.296 20.2891 16.0535 20.2891C15.8034 20.2891 15.6459 20.3928 15.548 20.6053L14.9236 21.961C14.9108 21.9888 14.9031 22.0116 14.8952 22.0368H15.4345C15.437 22.0167 15.4437 21.996 15.4526 21.9762L15.7131 21.3944H16.0823L15.9182 21.6011C15.9128 21.6078 15.9038 21.6203 15.8997 21.6246V21.6248ZM16.1445 21.3946L16.201 21.2481C16.1835 21.2643 16.1419 21.3202 16.1242 21.3419L16.0823 21.3946H15.7131L15.9788 20.7824C15.9969 20.742 16.0253 20.7293 16.0562 20.7293C16.0896 20.7293 16.1207 20.7446 16.1363 20.7824L16.4047 21.3946H16.1447H16.1445ZM14.7456 22.037V21.5994H13.5356C13.4145 21.5994 13.3809 21.5615 13.3809 21.4375V20.3271H12.9113V21.4804C12.9113 21.8524 13.0507 22.0368 13.4788 22.0368H14.7456V22.037ZM19.2217 20.3273H17.9421C17.7099 20.3273 17.5782 20.3879 17.4855 20.4814C17.3925 20.575 17.3359 20.7015 17.3359 20.8381C17.3359 20.9773 17.3901 21.1011 17.483 21.1949C17.5759 21.2884 17.7101 21.349 17.9422 21.349H18.6517C18.7189 21.349 18.7523 21.3616 18.7755 21.387C18.7988 21.4098 18.8116 21.4428 18.8116 21.4781C18.8116 21.5085 18.8013 21.5363 18.7832 21.5566C18.76 21.5845 18.7239 21.5996 18.6517 21.5996H17.3824V22.0372H18.7342C18.9405 22.0372 19.0798 21.9689 19.1753 21.8601C19.2553 21.769 19.3043 21.6502 19.3043 21.5261C19.3043 21.3919 19.2475 21.2656 19.1547 21.1721C19.0618 21.0785 18.9303 21.0177 18.7342 21.0177H17.968C17.9138 21.0177 17.8879 21.0102 17.8674 20.9925C17.8416 20.9724 17.8236 20.9394 17.8236 20.9014C17.8236 20.866 17.8365 20.8355 17.8597 20.8129C17.8802 20.7928 17.9113 20.78 17.968 20.78H19.2219V20.3273H19.2217ZM21.0045 20.3273V20.9469H19.9648V20.3273H19.4951V22.037H19.9648V21.3769H21.0045V22.037H21.4739V20.3273H21.0045Z" fill="url(#paint3_linear_736_2809)"/>
<defs>
<linearGradient id="paint0_linear_736_2809" x1="11.0709" y1="15.9272" x2="14.4302" y2="19.7896" gradientUnits="userSpaceOnUse">
<stop stop-color="#05A4C7"/>
<stop offset="1" stop-color="#1ADBD4"/>
</linearGradient>
<linearGradient id="paint1_linear_736_2809" x1="13.566" y1="15.9272" x2="16.8753" y2="20.063" gradientUnits="userSpaceOnUse">
<stop stop-color="#05A4C7"/>
<stop offset="1" stop-color="#1ADBD4"/>
</linearGradient>
<linearGradient id="paint2_linear_736_2809" x1="17.4339" y1="15.9277" x2="20.7606" y2="19.983" gradientUnits="userSpaceOnUse">
<stop stop-color="#05A4C7"/>
<stop offset="1" stop-color="#1ADBD4"/>
</linearGradient>
<linearGradient id="paint3_linear_736_2809" x1="11.384" y1="20.2891" x2="11.865" y2="23.4034" gradientUnits="userSpaceOnUse">
<stop stop-color="#05A4C7"/>
<stop offset="1" stop-color="#1ADBD4"/>
</linearGradient>
</defs>
</svg>
