<svg width="40" height="35" viewBox="0 0 40 35" fill="none" xmlns="http://www.w3.org/2000/svg">
<path fill-rule="evenodd" clip-rule="evenodd" d="M33.1657 34.344L34.5282 31.55C34.5648 31.5645 34.5366 31.548 34.571 31.5739L34.8269 31.8322C34.9254 31.9316 35.0131 32.021 35.1111 32.1211C35.3004 32.315 35.4993 32.4965 35.6888 32.6896C35.8816 32.8859 36.0649 33.0704 36.2573 33.2675C36.3066 33.3179 36.3564 33.3499 36.4048 33.3992C36.4566 33.452 36.4983 33.4943 36.5507 33.5472C36.635 33.6323 36.7594 33.7763 36.8471 33.842C36.9403 33.7957 37.1685 33.5314 37.2613 33.4444C37.4064 33.3081 37.5395 33.1809 37.6844 33.0442L38.5137 32.2378L38.2282 31.9461C38.1301 31.8467 38.0425 31.7567 37.944 31.6571C37.8453 31.5572 37.7587 31.4678 37.6597 31.3684L37.359 31.0813C37.1793 30.8982 36.8272 30.5215 36.6444 30.3705L36.211 29.9239L39.0849 28.6407C39.0227 28.5911 34.4947 26.8377 34.2993 26.7617C34.1559 26.706 29.6456 24.9256 29.5002 24.8884L33.1661 34.3436L33.1657 34.344ZM33.043 30.0647L33.7183 29.1735L34.6073 30.2233C34.6122 30.1735 33.9934 27.8506 33.8978 27.6219L33.2262 28.5123C33.121 28.3235 33.0438 28.1059 32.9507 27.8992C32.8585 27.6946 32.7758 27.4903 32.6792 27.2953L32.126 28.0163C32.2316 28.2519 32.9875 30.0025 33.043 30.0648V30.0647Z" fill="url(#paint0_linear_765_183)"/>
<path fill-rule="evenodd" clip-rule="evenodd" d="M16.1772 0.440369C24.606 0.440369 31.4389 7.13929 31.4389 15.4028C31.4389 23.6664 24.606 30.3653 16.1772 30.3653C7.74843 30.3653 0.915527 23.6664 0.915527 15.4028C0.915527 7.13929 7.74843 0.440369 16.1772 0.440369ZM16.1772 4.29713C22.4334 4.29713 27.5051 9.26937 27.5051 15.4028C27.5051 21.5363 22.4334 26.5085 16.1772 26.5085C9.92111 26.5085 4.84942 21.5363 4.84942 15.4028C4.84942 9.26937 9.92111 4.29713 16.1772 4.29713Z" fill="url(#paint1_linear_765_183)"/>
<path d="M16.1771 23.9641C21 23.9641 24.9097 20.1311 24.9097 15.4028C24.9097 10.6745 21 6.84149 16.1771 6.84149C11.3543 6.84149 7.44458 10.6745 7.44458 15.4028C7.44458 20.1311 11.3543 23.9641 16.1771 23.9641Z" fill="url(#paint2_linear_765_183)"/>
<path fill-rule="evenodd" clip-rule="evenodd" d="M14.8818 15.167H12.8952C12.5362 15.167 12.2948 15.0568 12.132 14.8808C11.9861 14.7267 11.8962 14.5177 11.8962 14.292C11.8962 14.0445 12.0028 13.8134 12.1768 13.6539C12.3396 13.5054 12.5527 13.4117 12.895 13.4117H13.4501V12.427H12.895C12.2833 12.427 11.8289 12.6141 11.4921 12.9168C11.1161 13.2579 10.8804 13.7475 10.8804 14.2868C10.8804 14.7764 11.0656 15.2165 11.3686 15.5412C11.7165 15.9154 12.2161 16.1463 12.895 16.1463H14.8817V15.1671L14.8818 15.167ZM13.7496 13.4118H14.8818V12.4272H13.7496V13.4118Z" fill="white"/>
<path fill-rule="evenodd" clip-rule="evenodd" d="M13.3586 12.427V13.4117H13.4504V12.427H13.3586ZM13.7496 13.4117H15.0254V16.1462H16.0466V13.4117H17.7078V12.427H13.7496V13.4117Z" fill="white"/>
<path fill-rule="evenodd" clip-rule="evenodd" d="M18.2473 14.8259H20.0151C20.3125 14.8259 20.4304 14.9194 20.4304 15.156V15.8988C20.4304 15.9814 20.4359 16.0639 20.4473 16.1463H21.4741C21.4629 16.0419 21.4572 15.9538 21.4572 15.7943V15.0516C21.4572 14.628 21.3449 14.4298 21.0924 14.2813C21.3618 14.0887 21.4516 13.8081 21.4516 13.511C21.4516 13.2304 21.3337 12.9719 21.1484 12.7794C20.9409 12.5648 20.6435 12.4274 20.1777 12.4274H17.4839C17.3155 12.4274 17.2314 12.5044 17.2314 12.6585V16.1467H18.2473V14.8262V14.8259ZM18.2473 13.9786V13.4395C18.2473 13.39 18.2754 13.3569 18.3314 13.3569H20.0431C20.1721 13.3569 20.262 13.3953 20.318 13.4559C20.3741 13.5109 20.4021 13.588 20.4021 13.665C20.4021 13.7365 20.3741 13.8026 20.3292 13.8576C20.2675 13.9291 20.1833 13.9786 20.0429 13.9786H18.2471H18.2473Z" fill="white"/>
<path d="M11.1955 16.827C10.9865 16.827 10.8809 16.9281 10.8809 17.1406V18.537H11.3478V17.9653H12.7075V17.5404H11.3478V17.3558C11.3478 17.3051 11.371 17.2799 11.42 17.2799H12.7152V16.8272H11.1955V16.827ZM15.8997 18.1247L16.0305 18.1262L15.9431 18.3947C15.9537 18.3877 16.0115 18.3143 16.0192 18.3051C16.0443 18.274 16.0679 18.2446 16.0929 18.2151L16.2031 18.0812C16.2131 18.0694 16.2332 18.0474 16.2392 18.0346L16.0919 18.031L16.1447 17.8943H16.4047L16.6677 18.4786C16.6756 18.4961 16.6833 18.514 16.6883 18.5368H17.2146C17.2069 18.5115 17.199 18.4888 17.1861 18.4609L16.5566 17.1052C16.4585 16.8927 16.296 16.789 16.0535 16.789C15.8034 16.789 15.6459 16.8927 15.548 17.1052L14.9236 18.4609C14.9108 18.4888 14.9031 18.5115 14.8952 18.5368H15.4345C15.437 18.5166 15.4437 18.4959 15.4526 18.4762L15.7131 17.8943H16.0823L15.9182 18.101C15.9128 18.1078 15.9038 18.1202 15.8997 18.1245V18.1247ZM16.1445 17.8945L16.201 17.7481C16.1835 17.7642 16.1419 17.8202 16.1242 17.8418L16.0823 17.8945H15.7131L15.9788 17.2824C15.9969 17.2419 16.0253 17.2293 16.0562 17.2293C16.0896 17.2293 16.1207 17.2445 16.1363 17.2824L16.4047 17.8945H16.1447H16.1445ZM14.7456 18.537V18.0993H13.5356C13.4145 18.0993 13.3809 18.0615 13.3809 17.9374V16.827H12.9113V17.9803C12.9113 18.3523 13.0507 18.5368 13.4788 18.5368H14.7456V18.537ZM19.2217 16.8272H17.9421C17.7099 16.8272 17.5782 16.8878 17.4855 16.9814C17.3925 17.0749 17.3359 17.2014 17.3359 17.3381C17.3359 17.4772 17.3901 17.601 17.483 17.6948C17.5759 17.7883 17.7101 17.849 17.9422 17.849H18.6517C18.7189 17.849 18.7523 17.8616 18.7755 17.887C18.7988 17.9098 18.8116 17.9427 18.8116 17.9781C18.8116 18.0084 18.8013 18.0362 18.7832 18.0566C18.76 18.0844 18.7239 18.0995 18.6517 18.0995H17.3824V18.5371H18.7342C18.9405 18.5371 19.0798 18.4688 19.1753 18.36C19.2553 18.2689 19.3043 18.1501 19.3043 18.0261C19.3043 17.8919 19.2475 17.7656 19.1547 17.672C19.0618 17.5785 18.9303 17.5177 18.7342 17.5177H17.968C17.9138 17.5177 17.8879 17.5101 17.8674 17.4924C17.8416 17.4723 17.8236 17.4394 17.8236 17.4013C17.8236 17.3659 17.8365 17.3354 17.8597 17.3129C17.8802 17.2927 17.9113 17.2799 17.968 17.2799H19.2219V16.8272H19.2217ZM21.0045 16.8272V17.4469H19.9648V16.8272H19.4951V18.537H19.9648V17.8768H21.0045V18.537H21.4739V16.8272H21.0045Z" fill="white"/>
<defs>
<linearGradient id="paint0_linear_765_183" x1="29.9555" y1="24.8884" x2="38.5516" y2="34.2002" gradientUnits="userSpaceOnUse">
<stop stop-color="#05A4C7"/>
<stop offset="1" stop-color="#1ADBD4"/>
</linearGradient>
<linearGradient id="paint1_linear_765_183" x1="2.36539" y1="0.44037" x2="29.556" y2="30.0797" gradientUnits="userSpaceOnUse">
<stop stop-color="#05A4C7"/>
<stop offset="1" stop-color="#1ADBD4"/>
</linearGradient>
<linearGradient id="paint2_linear_765_183" x1="8.27417" y1="6.84149" x2="23.8323" y2="23.8007" gradientUnits="userSpaceOnUse">
<stop stop-color="#05A4C7"/>
<stop offset="1" stop-color="#1ADBD4"/>
</linearGradient>
</defs>
</svg>
