<svg width="40" height="40" viewBox="0 0 40 40" fill="none" xmlns="http://www.w3.org/2000/svg">
<path fill-rule="evenodd" clip-rule="evenodd" d="M33.1655 37.3441L34.5279 34.5501C34.5646 34.5646 34.5364 34.548 34.5707 34.574L34.8267 34.8322C34.9252 34.9316 35.0129 35.021 35.1108 35.1212C35.3001 35.3151 35.499 35.4965 35.6886 35.6897C35.8813 35.886 36.0647 36.0705 36.2571 36.2675C36.3064 36.318 36.3561 36.35 36.4045 36.3993C36.4564 36.452 36.498 36.4944 36.5504 36.5473C36.6347 36.6323 36.7591 36.7763 36.8469 36.842C36.94 36.7957 37.1683 36.5314 37.261 36.4445C37.4062 36.3082 37.5392 36.181 37.6842 36.0443L38.5134 35.2379L38.2279 34.9461C38.1298 34.8467 38.0423 34.7568 37.9438 34.6572C37.8451 34.5572 37.7585 34.4678 37.6594 34.3684L37.3588 34.0814C37.179 33.8982 36.8269 33.5216 36.6441 33.3706L36.2108 32.9239L39.0846 31.6407C39.0224 31.5912 34.4945 29.8378 34.299 29.7617C34.1556 29.706 29.6453 27.9257 29.5 27.8884L33.1659 37.3437L33.1655 37.3441ZM33.0428 33.0647L33.7181 32.1736L34.607 33.2234C34.612 33.1735 33.9932 30.8507 33.8976 30.622L33.226 31.5123C33.1207 31.3235 33.0436 31.1059 32.9504 30.8993C32.8583 30.6946 32.7755 30.4904 32.6789 30.2954L32.1258 31.0163C32.2314 31.252 32.9873 33.0026 33.0428 33.0649V33.0647Z" fill="#04839F"/>
<path fill-rule="evenodd" clip-rule="evenodd" d="M16.1772 3.44043C24.606 3.44043 31.4389 10.1394 31.4389 18.4029C31.4389 26.6664 24.606 33.3654 16.1772 33.3654C7.74843 33.3654 0.915527 26.6664 0.915527 18.4029C0.915527 10.1394 7.74843 3.44043 16.1772 3.44043ZM16.1772 7.29719C22.4334 7.29719 27.5051 12.2694 27.5051 18.4029C27.5051 24.5364 22.4334 29.5086 16.1772 29.5086C9.92111 29.5086 4.84942 24.5364 4.84942 18.4029C4.84942 12.2694 9.92111 7.29719 16.1772 7.29719Z" fill="#04839F"/>
<path d="M16.1774 26.9642C21.0002 26.9642 24.9099 23.1312 24.9099 18.4029C24.9099 13.6746 21.0002 9.84155 16.1774 9.84155C11.3545 9.84155 7.44482 13.6746 7.44482 18.4029C7.44482 23.1312 11.3545 26.9642 16.1774 26.9642Z" fill="#04839F"/>
<path fill-rule="evenodd" clip-rule="evenodd" d="M14.8818 18.167H12.8952C12.5362 18.167 12.2948 18.0568 12.132 17.8808C11.9861 17.7267 11.8962 17.5177 11.8962 17.292C11.8962 17.0445 12.0028 16.8134 12.1768 16.6539C12.3396 16.5054 12.5527 16.4117 12.895 16.4117H13.4501V15.427H12.895C12.2833 15.427 11.8289 15.6141 11.4921 15.9168C11.1161 16.2579 10.8804 16.7475 10.8804 17.2868C10.8804 17.7764 11.0656 18.2165 11.3686 18.5412C11.7165 18.9154 12.2161 19.1463 12.895 19.1463H14.8817V18.1671L14.8818 18.167ZM13.7496 16.4118H14.8818V15.4272H13.7496V16.4118Z" fill="white"/>
<path fill-rule="evenodd" clip-rule="evenodd" d="M13.3589 15.427V16.4117H13.4507V15.427H13.3589ZM13.7498 16.4117H15.0256V19.1462H16.0469V16.4117H17.7081V15.427H13.7498V16.4117Z" fill="white"/>
<path fill-rule="evenodd" clip-rule="evenodd" d="M18.2473 17.826H20.0151C20.3125 17.826 20.4304 17.9195 20.4304 18.1562V18.8989C20.4304 18.9816 20.4359 19.064 20.4473 19.1465H21.4741C21.4629 19.042 21.4572 18.9539 21.4572 18.7945V18.0517C21.4572 17.6281 21.3449 17.4299 21.0924 17.2814C21.3618 17.0889 21.4516 16.8082 21.4516 16.5112C21.4516 16.2305 21.3337 15.9721 21.1484 15.7795C20.9409 15.5649 20.6435 15.4275 20.1777 15.4275H17.4839C17.3155 15.4275 17.2314 15.5045 17.2314 15.6586V19.1468H18.2473V17.8264V17.826ZM18.2473 16.9787V16.4396C18.2473 16.3901 18.2754 16.357 18.3314 16.357H20.0431C20.1721 16.357 20.262 16.3954 20.318 16.456C20.3741 16.511 20.4021 16.5882 20.4021 16.6651C20.4021 16.7367 20.3741 16.8027 20.3292 16.8577C20.2675 16.9292 20.1833 16.9787 20.0429 16.9787H18.2471H18.2473Z" fill="white"/>
<path d="M11.1955 19.8271C10.9865 19.8271 10.8809 19.9282 10.8809 20.1407V21.537H11.3478V20.9653H12.7075V20.5405H11.3478V20.3558C11.3478 20.3052 11.371 20.28 11.42 20.28H12.7152V19.8273H11.1955V19.8271ZM15.8997 21.1248L16.0305 21.1263L15.9431 21.3947C15.9537 21.3877 16.0115 21.3143 16.0192 21.3051C16.0443 21.2741 16.0679 21.2447 16.0929 21.2151L16.2031 21.0813C16.2131 21.0694 16.2332 21.0474 16.2392 21.0346L16.0919 21.031L16.1447 20.8944H16.4047L16.6677 21.4787C16.6756 21.4962 16.6833 21.5141 16.6883 21.5368H17.2146C17.2069 21.5116 17.199 21.4888 17.1861 21.461L16.5566 20.1053C16.4585 19.8928 16.296 19.7891 16.0535 19.7891C15.8034 19.7891 15.6459 19.8928 15.548 20.1053L14.9236 21.461C14.9108 21.4888 14.9031 21.5116 14.8952 21.5368H15.4345C15.437 21.5167 15.4437 21.496 15.4526 21.4762L15.7131 20.8944H16.0823L15.9182 21.1011C15.9128 21.1078 15.9038 21.1203 15.8997 21.1246V21.1248ZM16.1445 20.8946L16.201 20.7481C16.1835 20.7643 16.1419 20.8202 16.1242 20.8419L16.0823 20.8946H15.7131L15.9788 20.2824C15.9969 20.242 16.0253 20.2293 16.0562 20.2293C16.0896 20.2293 16.1207 20.2446 16.1363 20.2824L16.4047 20.8946H16.1447H16.1445ZM14.7456 21.537V21.0994H13.5356C13.4145 21.0994 13.3809 21.0615 13.3809 20.9375V19.8271H12.9113V20.9804C12.9113 21.3524 13.0507 21.5368 13.4788 21.5368H14.7456V21.537ZM19.2217 19.8273H17.9421C17.7099 19.8273 17.5782 19.8879 17.4855 19.9814C17.3925 20.075 17.3359 20.2015 17.3359 20.3381C17.3359 20.4773 17.3901 20.6011 17.483 20.6949C17.5759 20.7884 17.7101 20.849 17.9422 20.849H18.6517C18.7189 20.849 18.7523 20.8616 18.7755 20.887C18.7988 20.9098 18.8116 20.9428 18.8116 20.9781C18.8116 21.0085 18.8013 21.0363 18.7832 21.0566C18.76 21.0845 18.7239 21.0996 18.6517 21.0996H17.3824V21.5372H18.7342C18.9405 21.5372 19.0798 21.4689 19.1753 21.3601C19.2553 21.269 19.3043 21.1502 19.3043 21.0261C19.3043 20.8919 19.2475 20.7656 19.1547 20.6721C19.0618 20.5785 18.9303 20.5177 18.7342 20.5177H17.968C17.9138 20.5177 17.8879 20.5102 17.8674 20.4925C17.8416 20.4724 17.8236 20.4394 17.8236 20.4014C17.8236 20.366 17.8365 20.3355 17.8597 20.3129C17.8802 20.2928 17.9113 20.28 17.968 20.28H19.2219V19.8273H19.2217ZM21.0045 19.8273V20.4469H19.9648V19.8273H19.4951V21.537H19.9648V20.8769H21.0045V21.537H21.4739V19.8273H21.0045Z" fill="white"/>
</svg>
