<svg width="280" height="205" viewBox="0 0 280 205" fill="none" xmlns="http://www.w3.org/2000/svg">
<g clip-path="url(#clip0_13_631)">
<mask id="mask0_13_631" style="mask-type:luminance" maskUnits="userSpaceOnUse" x="-217" y="-111" width="497" height="360">
<path d="M280 -110.379H-216.552V248.241H280V-110.379Z" fill="white"/>
</mask>
<g mask="url(#mask0_13_631)">
<g opacity="0.01">
<path d="M205.627 49.0835C205.627 40.8057 212.338 34.0956 220.616 34.0956C221.859 34.0956 223.06 34.2629 224.215 34.5484C227.496 27.5578 234.595 22.7151 242.828 22.7151C250.91 22.7151 257.899 27.3817 261.257 34.1659C268.876 34.8739 274.843 41.2792 274.843 49.0835C274.843 57.3613 268.132 64.0719 259.854 64.0719C259.784 64.0719 259.715 64.0627 259.645 64.0618V64.0719H220.406V64.0618C212.226 63.9482 205.627 57.2905 205.627 49.0835Z" fill="#F3F3F3"/>
<path d="M205.628 49.0846C205.628 57.3619 212.339 64.072 220.616 64.072C228.894 64.072 235.604 57.3619 235.604 49.0846C235.604 40.8063 228.894 34.0962 220.616 34.0962C212.339 34.0962 205.628 40.8063 205.628 49.0846Z" fill="white"/>
<path d="M222.274 43.2682C222.274 54.6197 231.477 63.8225 242.828 63.8225C254.18 63.8225 263.381 54.6197 263.381 43.2682C263.381 31.9171 254.18 22.7148 242.828 22.7148C231.477 22.7148 222.274 31.9171 222.274 43.2682Z" fill="white"/>
<path d="M244.866 49.0846C244.866 57.3619 251.576 64.072 259.854 64.072C268.132 64.072 274.843 57.3619 274.843 49.0846C274.843 40.8063 268.132 34.0962 259.854 34.0962C251.576 34.0962 244.866 40.8063 244.866 49.0846Z" fill="white"/>
</g>
<g opacity="0.01">
<path d="M205.627 49.0835C205.627 40.8057 212.338 34.0956 220.616 34.0956C221.859 34.0956 223.06 34.2629 224.215 34.5484C227.496 27.5578 234.595 22.7151 242.828 22.7151C250.91 22.7151 257.899 27.3817 261.257 34.1659C268.876 34.8739 274.843 41.2792 274.843 49.0835C274.843 57.3613 268.132 64.0719 259.854 64.0719C259.784 64.0719 259.715 64.0627 259.645 64.0618V64.0719H220.406V64.0618C212.226 63.9482 205.627 57.2905 205.627 49.0835Z" fill="#F3F3F3"/>
<path d="M205.628 49.0846C205.628 57.3619 212.339 64.072 220.616 64.072C228.894 64.072 235.604 57.3619 235.604 49.0846C235.604 40.8063 228.894 34.0962 220.616 34.0962C212.339 34.0962 205.628 40.8063 205.628 49.0846Z" fill="url(#paint0_linear_13_631)"/>
<path d="M222.274 43.2682C222.274 54.6197 231.477 63.8225 242.828 63.8225C254.18 63.8225 263.381 54.6197 263.381 43.2682C263.381 31.9171 254.18 22.7148 242.828 22.7148C231.477 22.7148 222.274 31.9171 222.274 43.2682Z" fill="url(#paint1_linear_13_631)"/>
<path d="M244.866 49.0846C244.866 57.3619 251.576 64.072 259.854 64.072C268.132 64.072 274.843 57.3619 274.843 49.0846C274.843 40.8063 268.132 34.0962 259.854 34.0962C251.576 34.0962 244.866 40.8063 244.866 49.0846Z" fill="url(#paint2_linear_13_631)"/>
</g>
<g opacity="0.999998">
<path d="M23.4966 49.0835C23.4966 40.8057 30.2072 34.0956 38.485 34.0956C39.7281 34.0956 40.9293 34.2629 42.0846 34.5484C45.3652 27.5578 52.4643 22.7151 60.6975 22.7151C68.7794 22.7151 75.7686 27.3817 79.126 34.1659C86.7454 34.8739 92.7117 41.2792 92.7117 49.0835C92.7117 57.3613 86.0016 64.0719 77.7233 64.0719C77.653 64.0719 77.5845 64.0627 77.5137 64.0618V64.0719H38.2753V64.0618C30.095 63.9482 23.4966 57.2905 23.4966 49.0835Z" fill="#F3F3F3"/>
<path d="M23.4976 49.0846C23.4976 57.3619 30.2077 64.072 38.4855 64.072C46.7633 64.072 53.4734 57.3619 53.4734 49.0846C53.4734 40.8063 46.7633 34.0962 38.4855 34.0962C30.2077 34.0962 23.4976 40.8063 23.4976 49.0846Z" fill="#F3F3F3"/>
<path d="M40.1436 43.2682C40.1436 54.6197 49.3459 63.8225 60.6974 63.8225C72.0489 63.8225 81.2503 54.6197 81.2503 43.2682C81.2503 31.9171 72.0489 22.7148 60.6974 22.7148C49.3459 22.7148 40.1436 31.9171 40.1436 43.2682Z" fill="#F3F3F3"/>
<path d="M62.7354 49.0846C62.7354 57.3619 69.4455 64.072 77.7233 64.072C86.0015 64.072 92.7121 57.3619 92.7121 49.0846C92.7121 40.8063 86.0015 34.0962 77.7233 34.0962C69.4455 34.0962 62.7354 40.8063 62.7354 49.0846Z" fill="white"/>
</g>
<g opacity="0.999998">
<path d="M23.4966 49.0835C23.4966 40.8057 30.2072 34.0956 38.485 34.0956C39.7281 34.0956 40.9293 34.2629 42.0846 34.5484C45.3652 27.5578 52.4643 22.7151 60.6975 22.7151C68.7794 22.7151 75.7686 27.3817 79.126 34.1659C86.7454 34.8739 92.7117 41.2792 92.7117 49.0835C92.7117 57.3613 86.0016 64.0719 77.7233 64.0719C77.653 64.0719 77.5845 64.0627 77.5137 64.0618V64.0719H38.2753V64.0618C30.095 63.9482 23.4966 57.2905 23.4966 49.0835Z" fill="#F3F3F3"/>
<path d="M23.4976 49.0846C23.4976 57.3619 30.2077 64.072 38.4855 64.072C46.7633 64.072 53.4734 57.3619 53.4734 49.0846C53.4734 40.8063 46.7633 34.0962 38.4855 34.0962C30.2077 34.0962 23.4976 40.8063 23.4976 49.0846Z" fill="url(#paint3_linear_13_631)"/>
<path d="M40.1436 43.2682C40.1436 54.6197 49.3459 63.8225 60.6974 63.8225C72.0489 63.8225 81.2503 54.6197 81.2503 43.2682C81.2503 31.9171 72.0489 22.7148 60.6974 22.7148C49.3459 22.7148 40.1436 31.9171 40.1436 43.2682Z" fill="url(#paint4_linear_13_631)"/>
<path d="M62.7354 49.0846C62.7354 57.3619 69.4455 64.072 77.7233 64.072C86.0015 64.072 92.7121 57.3619 92.7121 49.0846C92.7121 40.8063 86.0015 34.0962 77.7233 34.0962C69.4455 34.0962 62.7354 40.8063 62.7354 49.0846Z" fill="url(#paint5_linear_13_631)"/>
</g>
<path d="M146.552 161.062C143.301 161.062 140.642 163.722 140.642 166.972L142.231 181.519C142.231 184.769 144.89 187.429 148.141 187.429H162.688C165.939 187.429 168.598 184.769 168.598 181.519L170.187 166.972C170.187 163.722 167.528 161.062 164.278 161.062H146.552Z" fill="url(#paint6_linear_13_631)"/>
<g opacity="0.01">
<path d="M212.87 71.1453C212.641 118.244 156.209 153.988 155.038 153.804C153.453 154.103 96.7893 112.038 98.1233 71.1453C99.156 39.4751 123.81 13.7717 155.497 13.7717C187.184 13.7717 213.026 39.4584 212.87 71.1453Z" fill="#FFBB08"/>
</g>
<path d="M155.415 13.9559C155.347 13.9559 155.28 13.9531 155.213 13.9531C123.481 13.9531 97.7575 39.6773 97.7575 71.4088C96.7489 115.307 155.213 154.115 155.213 154.115C155.281 154.061 214.08 115.307 213.072 71.4088C213.072 39.6773 187.349 13.9531 155.617 13.9531C155.549 13.9531 155.482 13.9559 155.415 13.9559Z" fill="url(#paint7_linear_13_631)"/>
<path d="M151.497 14.0717L147.9 14.4123C147.9 14.4123 67.8145 54.7504 155.212 154.113V154.115H155.617V154.114C243.015 54.7504 162.929 14.4123 162.929 14.4123L159.139 14.0597L155.415 13.9558L151.497 14.0717Z" fill="#04839F"/>
<path d="M155.415 13.9559V154.115H155.617V154.113C197.31 53.0426 159.095 14.4124 159.095 14.4124L158.738 14.0368L156.905 13.9531L155.415 13.9559Z" fill="#11928D"/>
<path d="M152.091 14.0368L151.735 14.4124C151.735 14.4124 113.519 53.0426 155.212 154.113V154.115H155.415V13.9559L153.924 13.9531L152.091 14.0368Z" fill="url(#paint8_linear_13_631)"/>
<g opacity="0.0999999">
<path d="M128.558 20.3659C101.884 34.4203 98.6866 60.3762 97.5874 70.5969C163.138 80.1491 182.666 50.2888 187.529 23.4723C165.175 9.23123 141.729 13.4258 128.558 20.3659Z" fill="white"/>
</g>
<path d="M159.667 127.682C159.667 121.58 164.614 116.634 170.716 116.634C171.632 116.634 172.518 116.757 173.369 116.968C175.788 111.814 181.021 108.244 187.09 108.244C193.048 108.244 198.2 111.685 200.675 116.686C206.292 117.207 210.691 121.929 210.691 127.682C210.691 133.785 205.744 138.732 199.641 138.732C199.589 138.732 199.539 138.725 199.487 138.724V138.732H170.561V138.724C164.531 138.64 159.667 133.732 159.667 127.682Z" fill="#F3F3F3"/>
<path d="M159.667 127.683C159.667 133.784 164.614 138.732 170.716 138.732C176.818 138.732 181.765 133.784 181.765 127.683C181.765 121.58 176.818 116.634 170.716 116.634C164.614 116.634 159.667 121.58 159.667 127.683Z" fill="#F3F3F3"/>
<path d="M171.938 123.396C171.938 131.764 178.722 138.547 187.09 138.547C195.458 138.547 202.242 131.764 202.242 123.396C202.242 115.028 195.458 108.244 187.09 108.244C178.722 108.244 171.938 115.028 171.938 123.396Z" fill="#F3F3F3"/>
<path d="M188.592 127.683C188.592 133.784 193.539 138.732 199.642 138.732C205.744 138.732 210.69 133.784 210.69 127.683C210.69 121.58 205.744 116.634 199.642 116.634C193.539 116.634 188.592 121.58 188.592 127.683Z" fill="#F3F3F3"/>
<path d="M159.667 127.682C159.667 121.58 164.614 116.634 170.716 116.634C171.632 116.634 172.518 116.757 173.369 116.968C175.788 111.814 181.021 108.244 187.09 108.244C193.048 108.244 198.2 111.685 200.675 116.686C206.292 117.207 210.691 121.929 210.691 127.682C210.691 133.785 205.744 138.732 199.641 138.732C199.589 138.732 199.539 138.725 199.487 138.724V138.732H170.561V138.724C164.531 138.64 159.667 133.732 159.667 127.682Z" fill="#F3F3F3"/>
<mask id="mask1_13_631" style="mask-type:luminance" maskUnits="userSpaceOnUse" x="159" y="116" width="23" height="23">
<path d="M159.667 127.683C159.667 133.784 164.614 138.732 170.716 138.732C176.818 138.732 181.765 133.784 181.765 127.683C181.765 121.58 176.818 116.634 170.716 116.634C164.614 116.634 159.667 121.58 159.667 127.683Z" fill="url(#paint9_radial_13_631)"/>
</mask>
<g mask="url(#mask1_13_631)">
<path d="M159.667 127.683C159.667 133.784 164.614 138.732 170.716 138.732C176.818 138.732 181.765 133.784 181.765 127.683C181.765 121.58 176.818 116.634 170.716 116.634C164.614 116.634 159.667 121.58 159.667 127.683Z" fill="url(#paint10_radial_13_631)"/>
</g>
<mask id="mask2_13_631" style="mask-type:luminance" maskUnits="userSpaceOnUse" x="171" y="108" width="32" height="31">
<path d="M171.938 123.396C171.938 131.764 178.722 138.547 187.09 138.547C195.458 138.547 202.242 131.764 202.242 123.396C202.242 115.028 195.458 108.244 187.09 108.244C178.722 108.244 171.938 115.028 171.938 123.396Z" fill="url(#paint11_radial_13_631)"/>
</mask>
<g mask="url(#mask2_13_631)">
<path d="M171.938 123.396C171.938 131.764 178.722 138.547 187.09 138.547C195.458 138.547 202.242 131.764 202.242 123.396C202.242 115.028 195.458 108.244 187.09 108.244C178.722 108.244 171.938 115.028 171.938 123.396Z" fill="url(#paint12_radial_13_631)"/>
</g>
<mask id="mask3_13_631" style="mask-type:luminance" maskUnits="userSpaceOnUse" x="188" y="116" width="23" height="23">
<path d="M188.592 127.683C188.592 133.784 193.539 138.732 199.642 138.732C205.744 138.732 210.69 133.784 210.69 127.683C210.69 121.58 205.744 116.634 199.642 116.634C193.539 116.634 188.592 121.58 188.592 127.683Z" fill="url(#paint13_radial_13_631)"/>
</mask>
<g mask="url(#mask3_13_631)">
<path d="M188.592 127.683C188.592 133.784 193.539 138.732 199.642 138.732C205.744 138.732 210.69 133.784 210.69 127.683C210.69 121.58 205.744 116.634 199.642 116.634C193.539 116.634 188.592 121.58 188.592 127.683Z" fill="url(#paint14_radial_13_631)"/>
</g>
<g opacity="0.01">
<path d="M228.142 127.659C228.142 121.557 233.089 116.611 239.191 116.611C240.107 116.611 240.993 116.734 241.844 116.945C244.263 111.791 249.496 108.221 255.565 108.221C261.523 108.221 266.675 111.662 269.15 116.663C274.767 117.184 279.166 121.906 279.166 127.659C279.166 133.762 274.219 138.709 268.116 138.709C268.065 138.709 268.014 138.702 267.962 138.701V138.709H239.036V138.701C233.006 138.617 228.142 133.709 228.142 127.659Z" fill="white"/>
<path d="M228.142 127.66C228.142 133.762 233.089 138.709 239.191 138.709C245.293 138.709 250.24 133.762 250.24 127.66C250.24 121.557 245.293 116.611 239.191 116.611C233.089 116.611 228.142 121.557 228.142 127.66Z" fill="white"/>
<path d="M240.414 123.373C240.414 131.741 247.197 138.524 255.565 138.524C263.934 138.524 270.717 131.741 270.717 123.373C270.717 115.005 263.934 108.221 255.565 108.221C247.197 108.221 240.414 115.005 240.414 123.373Z" fill="white"/>
<path d="M257.067 127.66C257.067 133.762 262.014 138.709 268.117 138.709C274.219 138.709 279.165 133.762 279.165 127.66C279.165 121.557 274.219 116.611 268.117 116.611C262.014 116.611 257.067 121.557 257.067 127.66Z" fill="white"/>
</g>
<g opacity="0.01">
<path d="M228.142 127.659C228.142 121.557 233.089 116.611 239.191 116.611C240.107 116.611 240.993 116.734 241.844 116.945C244.263 111.791 249.496 108.221 255.565 108.221C261.523 108.221 266.675 111.662 269.15 116.663C274.767 117.184 279.166 121.906 279.166 127.659C279.166 133.762 274.219 138.709 268.116 138.709C268.065 138.709 268.014 138.702 267.962 138.701V138.709H239.036V138.701C233.006 138.617 228.142 133.709 228.142 127.659Z" fill="white"/>
<mask id="mask4_13_631" style="mask-type:luminance" maskUnits="userSpaceOnUse" x="228" y="116" width="23" height="23">
<path d="M228.142 127.66C228.142 133.762 233.089 138.709 239.191 138.709C245.293 138.709 250.24 133.762 250.24 127.66C250.24 121.557 245.293 116.611 239.191 116.611C233.089 116.611 228.142 121.557 228.142 127.66Z" fill="url(#paint15_radial_13_631)"/>
</mask>
<g mask="url(#mask4_13_631)">
<path d="M228.142 127.66C228.142 133.762 233.089 138.709 239.191 138.709C245.293 138.709 250.24 133.762 250.24 127.66C250.24 121.557 245.293 116.611 239.191 116.611C233.089 116.611 228.142 121.557 228.142 127.66Z" fill="url(#paint16_radial_13_631)"/>
</g>
<path d="M240.414 123.373C240.414 131.741 247.197 138.524 255.565 138.524C263.934 138.524 270.717 131.741 270.717 123.373C270.717 115.005 263.934 108.221 255.565 108.221C247.197 108.221 240.414 115.005 240.414 123.373Z" fill="url(#paint17_radial_13_631)"/>
<path d="M257.067 127.66C257.067 133.762 262.014 138.709 268.117 138.709C274.219 138.709 279.165 133.762 279.165 127.66C279.165 121.557 274.219 116.611 268.117 116.611C262.014 116.611 257.067 121.557 257.067 127.66Z" fill="url(#paint18_radial_13_631)"/>
</g>
</g>
</g>
<defs>
<linearGradient id="paint0_linear_13_631" x1="220.616" y1="49.0841" x2="211.537" y2="39.4299" gradientUnits="userSpaceOnUse">
<stop stop-color="white" stop-opacity="0"/>
<stop offset="0.5" stop-color="#F0F0F0" stop-opacity="0.5"/>
<stop offset="1" stop-color="#E1E1E1"/>
</linearGradient>
<linearGradient id="paint1_linear_13_631" x1="247.425" y1="47.4062" x2="233.748" y2="28.7873" gradientUnits="userSpaceOnUse">
<stop stop-color="white" stop-opacity="0"/>
<stop offset="0.5" stop-color="#F0F0F0" stop-opacity="0.5"/>
<stop offset="1" stop-color="#E1E1E1"/>
</linearGradient>
<linearGradient id="paint2_linear_13_631" x1="259.855" y1="49.0841" x2="260.429" y2="34.3729" gradientUnits="userSpaceOnUse">
<stop stop-color="white" stop-opacity="0"/>
<stop offset="0.5" stop-color="#F0F0F0" stop-opacity="0.5"/>
<stop offset="1" stop-color="#E1E1E1"/>
</linearGradient>
<linearGradient id="paint3_linear_13_631" x1="38.4855" y1="49.0841" x2="29.4059" y2="39.4299" gradientUnits="userSpaceOnUse">
<stop stop-color="white" stop-opacity="0"/>
<stop offset="0.5" stop-color="#F0F0F0" stop-opacity="0.5"/>
<stop offset="1" stop-color="#E1E1E1"/>
</linearGradient>
<linearGradient id="paint4_linear_13_631" x1="65.2941" y1="47.4062" x2="51.6174" y2="28.7873" gradientUnits="userSpaceOnUse">
<stop stop-color="white" stop-opacity="0"/>
<stop offset="0.5" stop-color="#F0F0F0" stop-opacity="0.5"/>
<stop offset="1" stop-color="#E1E1E1"/>
</linearGradient>
<linearGradient id="paint5_linear_13_631" x1="77.7237" y1="49.0841" x2="78.2984" y2="34.3729" gradientUnits="userSpaceOnUse">
<stop stop-color="white" stop-opacity="0"/>
<stop offset="0.5" stop-color="#F0F0F0" stop-opacity="0.5"/>
<stop offset="1" stop-color="#E1E1E1"/>
</linearGradient>
<linearGradient id="paint6_linear_13_631" x1="142.045" y1="161.062" x2="165.707" y2="189.397" gradientUnits="userSpaceOnUse">
<stop stop-color="#05A4C7"/>
<stop offset="1" stop-color="#1ADBD4"/>
</linearGradient>
<linearGradient id="paint7_linear_13_631" x1="103.223" y1="13.9531" x2="230.004" y2="125.447" gradientUnits="userSpaceOnUse">
<stop stop-color="#05A4C7"/>
<stop offset="1" stop-color="#1ADBD4"/>
</linearGradient>
<linearGradient id="paint8_linear_13_631" x1="134.927" y1="25.8781" x2="134.007" y2="146.327" gradientUnits="userSpaceOnUse">
<stop stop-color="#6496CD"/>
<stop offset="0.5" stop-color="#588AC6"/>
<stop offset="1" stop-color="#4D7EBF"/>
</linearGradient>
<radialGradient id="paint9_radial_13_631" cx="0" cy="0" r="1" gradientUnits="userSpaceOnUse" gradientTransform="translate(174.163 134.578) scale(17.5423)">
<stop stop-color="white" stop-opacity="0"/>
<stop offset="0.45" stop-color="white" stop-opacity="0.5"/>
<stop offset="0.9" stop-color="white"/>
</radialGradient>
<radialGradient id="paint10_radial_13_631" cx="0" cy="0" r="1" gradientUnits="userSpaceOnUse" gradientTransform="translate(174.163 134.578) scale(17.5423)">
<stop offset="0.56" stop-color="white"/>
<stop offset="0.78" stop-color="#EFEFEF"/>
<stop offset="1" stop-color="#E0DFDF"/>
</radialGradient>
<radialGradient id="paint11_radial_13_631" cx="0" cy="0" r="1" gradientUnits="userSpaceOnUse" gradientTransform="translate(192.607 135.923) scale(27.7743 27.7743)">
<stop stop-color="white" stop-opacity="0"/>
<stop offset="0.5" stop-color="white" stop-opacity="0.5"/>
<stop offset="1" stop-color="white"/>
</radialGradient>
<radialGradient id="paint12_radial_13_631" cx="0" cy="0" r="1" gradientUnits="userSpaceOnUse" gradientTransform="translate(192.607 135.923) scale(27.7743 27.7743)">
<stop offset="0.47" stop-color="white"/>
<stop offset="0.8" stop-color="#EFEFEF"/>
<stop offset="0.97" stop-color="#E0DFDF"/>
</radialGradient>
<radialGradient id="paint13_radial_13_631" cx="0" cy="0" r="1" gradientUnits="userSpaceOnUse" gradientTransform="translate(196.193 135.958) scale(19.497)">
<stop stop-color="white" stop-opacity="0"/>
<stop offset="0.5" stop-color="white" stop-opacity="0.5"/>
<stop offset="1" stop-color="white"/>
</radialGradient>
<radialGradient id="paint14_radial_13_631" cx="0" cy="0" r="1" gradientUnits="userSpaceOnUse" gradientTransform="translate(196.193 135.958) scale(19.497)">
<stop offset="0.47" stop-color="white"/>
<stop offset="0.8" stop-color="#EFEFEF"/>
<stop offset="0.97" stop-color="#E0DFDF"/>
</radialGradient>
<radialGradient id="paint15_radial_13_631" cx="0" cy="0" r="1" gradientUnits="userSpaceOnUse" gradientTransform="translate(242.639 134.555) scale(17.5423)">
<stop stop-color="white" stop-opacity="0"/>
<stop offset="0.45" stop-color="white" stop-opacity="0.5"/>
<stop offset="0.9" stop-color="white"/>
</radialGradient>
<radialGradient id="paint16_radial_13_631" cx="0" cy="0" r="1" gradientUnits="userSpaceOnUse" gradientTransform="translate(242.639 134.555) scale(17.5423)">
<stop offset="0.56" stop-color="white"/>
<stop offset="0.78" stop-color="#EFEFEF"/>
<stop offset="1" stop-color="#E0DFDF"/>
</radialGradient>
<radialGradient id="paint17_radial_13_631" cx="0" cy="0" r="1" gradientUnits="userSpaceOnUse" gradientTransform="translate(261.082 135.9) scale(27.7743 27.7743)">
<stop offset="0.47" stop-color="white"/>
<stop offset="0.8" stop-color="#EFEFEF"/>
<stop offset="0.97" stop-color="#E0DFDF"/>
</radialGradient>
<radialGradient id="paint18_radial_13_631" cx="0" cy="0" r="1" gradientUnits="userSpaceOnUse" gradientTransform="translate(264.668 135.935) scale(19.497)">
<stop offset="0.47" stop-color="white"/>
<stop offset="0.8" stop-color="#EFEFEF"/>
<stop offset="0.97" stop-color="#E0DFDF"/>
</radialGradient>
<clipPath id="clip0_13_631">
<rect width="280" height="205" fill="white"/>
</clipPath>
</defs>
</svg>
