<svg width="241" height="230" viewBox="0 0 241 230" fill="none" xmlns="http://www.w3.org/2000/svg">
<g opacity="0.4" filter="url(#filter0_f_2141_7701)">
<path d="M43.6143 163.336C29.4601 225.175 6.19211 168.833 -10.1024 101.498L-11 95.5427C-10.1024 91.1148 -7.09208 82.2591 -2.23134 82.2591C3.84459 82.2591 8.53962 82.2591 14.6155 95.5427C20.6915 108.826 22.2795 101.498 28.9078 112.033C35.5361 122.569 38.0907 118.904 42.2334 117.988C45.5475 117.255 53.971 76.1515 57.7684 48.3622C65.6625 35.9945 83.9225 -0.742368 93.8097 9.88475C106.169 23.1686 129.299 101.498 152.221 82.2591C175.144 63.0205 168.171 59.8137 185.777 47.904C196.765 40.4712 200.12 47.0516 200.594 54.0742C201.33 50.7804 200.924 55.2891 200.488 59.1684C200.465 59.3871 200.441 59.6023 200.415 59.8137C200.439 59.6015 200.464 59.386 200.488 59.1684C200.652 57.5807 200.711 55.8139 200.594 54.0742C200.361 55.1167 200.014 56.9407 199.517 59.8137C196.824 75.3878 171.416 123.943 150.288 153.717C129.161 183.491 101.888 53.8588 78.758 59.8137C55.628 65.7685 57.7684 101.498 43.6143 163.336Z" fill="url(#paint0_linear_2141_7701)"/>
</g>
<defs>
<filter id="filter0_f_2141_7701" x="-51" y="-32.0205" width="292" height="262" filterUnits="userSpaceOnUse" color-interpolation-filters="sRGB">
<feFlood flood-opacity="0" result="BackgroundImageFix"/>
<feBlend mode="normal" in="SourceGraphic" in2="BackgroundImageFix" result="shape"/>
<feGaussianBlur stdDeviation="20" result="effect1_foregroundBlur_2141_7701"/>
</filter>
<linearGradient id="paint0_linear_2141_7701" x1="-0.930009" y1="7.9795" x2="161.153" y2="209.746" gradientUnits="userSpaceOnUse">
<stop stop-color="#05A4C7"/>
<stop offset="1" stop-color="#1ADBD4"/>
</linearGradient>
</defs>
</svg>
