<svg width="1440" height="585" viewBox="0 0 1440 585" fill="none" xmlns="http://www.w3.org/2000/svg">
<g opacity="0.4" filter="url(#filter0_f_122_11610)">
<path d="M389.438 480.491C286.954 625.575 118.481 493.388 0.498986 335.408L-6 321.437C0.498986 311.048 22.2956 290.271 57.4901 290.271C101.483 290.271 135.478 290.271 179.471 321.437C223.464 352.602 234.962 335.408 282.955 360.126C330.947 384.844 349.445 376.246 379.44 374.097C403.436 372.377 464.427 275.942 491.922 210.744C549.08 181.727 681.293 95.5372 752.882 120.47C842.368 151.636 1009.84 335.408 1175.82 290.271C1341.79 245.135 1291.3 237.611 1418.78 209.669C1498.34 192.231 1522.63 207.669 1526.06 224.145C1531.39 216.418 1528.45 226.996 1525.29 236.097C1525.13 236.61 1524.95 237.115 1524.76 237.611C1524.94 237.113 1525.12 236.608 1525.29 236.097C1526.48 232.372 1526.91 228.227 1526.06 224.145C1524.37 226.591 1521.86 230.871 1518.26 237.611C1498.77 274.15 1314.79 388.068 1161.82 457.923C1008.84 527.778 811.373 223.64 643.899 237.611C476.425 251.582 491.922 335.408 389.438 480.491Z" fill="url(#paint0_linear_122_11610)"/>
</g>
<defs>
<filter id="filter0_f_122_11610" x="-122" y="0" width="1767" height="659" filterUnits="userSpaceOnUse" color-interpolation-filters="sRGB">
<feFlood flood-opacity="0" result="BackgroundImageFix"/>
<feBlend mode="normal" in="SourceGraphic" in2="BackgroundImageFix" result="shape"/>
<feGaussianBlur stdDeviation="58" result="effect1_foregroundBlur_122_11610"/>
</filter>
<linearGradient id="paint0_linear_122_11610" x1="66.9124" y1="116" x2="256.782" y2="845.432" gradientUnits="userSpaceOnUse">
<stop stop-color="#05A4C7"/>
<stop offset="1" stop-color="#1ADBD4"/>
</linearGradient>
</defs>
</svg>
