<svg width="1200" height="147" viewBox="0 0 1200 147" fill="none" xmlns="http://www.w3.org/2000/svg">
<rect width="1600" height="1920" transform="matrix(0.992952 -0.118514 -0.427731 0.903906 216 -584.857)" fill="white"/>
<g opacity="0.7">
<g style="mix-blend-mode:darken">
<rect width="1600" height="1920" transform="matrix(0.992952 -0.118514 -0.427731 0.903906 216 -584.857)" fill="url(#paint0_linear_2215_4654)"/>
</g>
</g>
<g opacity="0.2">
<g style="mix-blend-mode:darken">
<mask id="mask0_2215_4654" style="mask-type:alpha" maskUnits="userSpaceOnUse" x="-606" y="-775" width="2411" height="1926">
<rect width="1600" height="1920" transform="matrix(0.992952 -0.118514 -0.427731 0.903906 216 -584.857)" fill="white"/>
</mask>
<g mask="url(#mask0_2215_4654)">
<rect width="1600" height="1920" transform="matrix(0.992952 -0.118514 -0.427731 0.903906 216 -584.857)" fill="url(#paint1_linear_2215_4654)"/>
<g style="mix-blend-mode:overlay">
<path fill-rule="evenodd" clip-rule="evenodd" d="M1530.24 506.709L1481.91 447.635C1433.58 388.561 1336.93 270.413 1196.91 243.897C1056.89 217.38 873.517 282.495 700.98 324.702C528.443 366.91 366.746 386.209 248.41 313.877C130.073 241.544 55.0971 77.5807 17.6091 -4.40119L-19.8789 -86.3831L-605.243 1150.64L-524.395 1140.99C-443.547 1131.34 -281.85 1112.04 -120.153 1092.74C41.5437 1073.45 203.24 1054.15 364.937 1034.85C526.634 1015.55 688.331 996.248 850.028 976.949C1011.72 957.65 1173.42 938.35 1254.27 928.701L1335.12 919.051L1530.24 506.709Z" fill="black"/>
</g>
<path fill-rule="evenodd" clip-rule="evenodd" d="M-522.216 11.3159L-414.433 -1.54852C-306.65 -14.413 -91.0832 -40.1419 51.0563 89.299C193.196 218.74 261.908 503.351 414.537 610.624C567.166 717.898 803.712 647.835 1082.22 489.103C1360.72 330.372 1681.18 82.9719 1841.41 -40.7281L2001.64 -164.428L1498.14 899.593L1390.36 912.458C1282.58 925.322 1067.01 951.051 851.445 976.78C635.879 1002.51 420.313 1028.24 204.746 1053.97C-10.8198 1079.7 -226.386 1105.42 -441.952 1131.15C-657.519 1156.88 -873.085 1182.61 -980.868 1195.48L-1088.65 1208.34L-522.216 11.3159Z" fill="#0085FF"/>
</g>
</g>
</g>
<g style="mix-blend-mode:darken">
<mask id="mask1_2215_4654" style="mask-type:alpha" maskUnits="userSpaceOnUse" x="-554" y="-763" width="2260" height="1806">
<rect width="1500" height="1800" transform="matrix(0.992952 -0.118514 -0.427731 0.903906 216 -584.857)" fill="white"/>
</mask>
<g mask="url(#mask1_2215_4654)">
<rect opacity="0.8" width="1500" height="1800" transform="matrix(0.992952 -0.118514 -0.427731 0.903906 216 -584.857)" fill="url(#paint2_linear_2215_4654)"/>
<path fill-rule="evenodd" clip-rule="evenodd" d="M-544.142 158.303L-443.109 146.244C-342.076 134.185 -140.01 110.068 4.66853 207.224C149.347 304.381 236.638 522.811 389.515 602.643C542.392 682.475 760.854 623.707 1012.11 495.641C1263.36 367.574 1547.41 170.208 1689.44 71.5246L1831.46 -27.1585L1437.95 804.435L1336.91 816.494C1235.88 828.553 1033.81 852.67 831.749 876.788C629.683 900.905 427.617 925.023 225.551 949.14C23.4856 973.258 -178.58 997.375 -380.646 1021.49C-582.712 1045.61 -784.778 1069.73 -885.811 1081.79L-986.843 1093.85L-544.142 158.303Z" fill="#F7F7FA"/>
<path fill-rule="evenodd" clip-rule="evenodd" d="M-435.682 -110.499L-334.649 -122.558C-233.616 -134.617 -31.55 -158.734 113.128 -61.5776C257.807 35.5789 345.098 254.01 497.975 333.841C650.852 413.673 869.314 354.906 1120.57 226.839C1371.82 98.7721 1655.87 -98.5941 1797.9 -197.277L1939.92 -295.96L1546.41 535.633L1445.37 547.692C1344.34 559.751 1142.27 583.868 940.209 607.986C738.143 632.103 536.077 656.221 334.011 680.338C131.946 704.456 -70.1202 728.574 -272.186 752.691C-474.252 776.809 -676.318 800.926 -777.351 812.985L-878.383 825.044L-435.682 -110.499Z" fill="#F7F7FA"/>
<path opacity="0.5" fill-rule="evenodd" clip-rule="evenodd" d="M1394.87 442.204L1353.29 368.882C1311.7 295.56 1228.53 148.915 1093.01 112.9C957.487 76.8846 769.615 151.498 594.831 198.455C420.046 245.412 258.35 264.711 149.003 173.381C39.6562 82.0512 -17.3404 -119.908 -45.8386 -220.887L-74.337 -321.867L-781.063 1171.63L-700.215 1161.98C-619.366 1152.33 -457.67 1133.03 -295.973 1113.73C-134.276 1094.43 27.4208 1075.13 189.118 1055.83C350.814 1036.53 512.511 1017.23 674.208 997.933C835.905 978.634 997.601 959.335 1078.45 949.685L1159.3 940.035L1394.87 442.204Z" fill="url(#paint3_linear_2215_4654)"/>
<path fill-rule="evenodd" clip-rule="evenodd" d="M-572.479 148.892L-471.433 136.832C-370.386 124.771 -168.293 100.65 -23.5639 197.756C121.165 294.861 208.529 513.193 361.452 592.981C514.376 672.768 732.859 614.011 984.123 485.982C1235.39 357.953 1519.43 160.652 1661.45 62.0011L1803.47 -36.6496L1410.11 794.617L1309.07 806.677C1208.02 818.738 1005.93 842.859 803.834 866.979C601.74 891.1 399.647 915.221 197.553 939.342C-4.54013 963.463 -206.634 987.583 -408.727 1011.7C-610.82 1035.83 -812.914 1059.95 -913.96 1072.01L-1015.01 1084.07L-572.479 148.892Z" fill="#F7F7FA"/>
</g>
</g>
<defs>
<linearGradient id="paint0_linear_2215_4654" x1="800.36" y1="0.000592018" x2="-32.7013" y2="1862.55" gradientUnits="userSpaceOnUse">
<stop stop-color="#012828"/>
<stop offset="1" stop-color="#001C52"/>
</linearGradient>
<linearGradient id="paint1_linear_2215_4654" x1="800.36" y1="0.000592018" x2="-32.7013" y2="1862.55" gradientUnits="userSpaceOnUse">
<stop stop-color="#012828"/>
<stop offset="1" stop-color="#001C52"/>
</linearGradient>
<linearGradient id="paint2_linear_2215_4654" x1="750.337" y1="0.000555017" x2="-30.6574" y2="1746.14" gradientUnits="userSpaceOnUse">
<stop stop-color="#012828"/>
<stop offset="1" stop-color="#001C52"/>
</linearGradient>
<linearGradient id="paint3_linear_2215_4654" x1="895.407" y1="-437.61" x2="1353.43" y2="842.924" gradientUnits="userSpaceOnUse">
<stop stop-color="#012828"/>
<stop offset="1" stop-color="#001C52"/>
</linearGradient>
</defs>
</svg>
