<svg width="640" height="427" viewBox="0 0 640 427" fill="none" xmlns="http://www.w3.org/2000/svg">
<g clip-path="url(#clip0_299_4064)">
<path d="M499.839 23.2762C496.449 21.6775 492.944 20.1549 489.458 18.7465L490.887 15.2256C494.43 16.653 497.992 18.2136 501.458 19.8314L499.839 23.2571V23.2762Z" fill="#404040"/>
<path d="M617.518 179.682C610.736 136.403 590.85 97.0258 560.031 65.7941C547.097 52.681 532.468 41.3188 516.544 32.0311L518.449 28.7576C534.659 38.2165 549.554 49.769 562.735 63.1296C594.108 94.9323 614.356 135.033 621.27 179.092L617.518 179.682Z" fill="#404040"/>
<path d="M246.52 338.144C220.138 302.611 206.043 260.493 205.719 216.319H209.509C209.814 259.655 223.662 301.012 249.548 335.879L246.501 338.144H246.52Z" fill="#404040"/>
<path d="M245.777 99.2906L242.672 97.1209C244.862 93.9806 247.167 90.8594 249.529 87.8523L252.52 90.1932C250.196 93.1432 247.948 96.2074 245.796 99.2906H245.777Z" fill="#404040"/>
<path d="M281.263 60.3699L278.825 57.4771C300.597 39.1301 325.474 25.7315 352.751 17.6428L353.836 21.278C327.055 29.2144 302.635 42.3656 281.263 60.3699Z" fill="#404040"/>
<path d="M432.257 14.1598C425.685 13.4557 418.999 13.075 412.389 13.0179C410.218 13.0179 408.047 13.0179 405.894 13.075L405.799 9.28762C408.008 9.23053 410.218 9.21149 412.428 9.23053C419.171 9.28762 425.99 9.66826 432.676 10.3915L432.276 14.1598H432.257Z" fill="#404040"/>
<path d="M497.286 32.6021C493.896 30.9843 490.41 29.4237 486.943 28.0153L488.391 24.5134C491.915 25.9599 495.477 27.5395 498.925 29.1953L497.286 32.6211V32.6021Z" fill="#404040"/>
<path d="M609.499 191.92C604.966 147.08 585.022 104.677 553.307 72.5124C537.955 56.9441 520.24 44.0594 500.678 34.2388L502.373 30.8511C522.316 40.8429 540.355 53.9751 556.012 69.8479C588.318 102.621 608.661 145.843 613.271 191.539L609.499 191.92Z" fill="#404040"/>
<path d="M250.73 327.695C230.062 298.062 217.929 263.367 215.624 227.358L219.415 227.11C221.662 262.415 233.567 296.444 253.834 325.525L250.73 327.695Z" fill="#404040"/>
<path d="M600.566 199.362C597.575 154.217 578.394 111.547 546.565 79.2499C527.593 59.9894 505.154 45.2395 479.896 35.4379L481.268 31.8979C507.021 41.8898 529.898 56.9252 549.269 76.5854C581.727 109.549 601.29 153.056 604.356 199.114L600.566 199.362Z" fill="#404040"/>
<path d="M603.918 229.832L600.146 229.47C600.489 225.74 600.737 221.934 600.87 218.184L604.661 218.318C604.528 222.143 604.28 226.007 603.918 229.813V229.832Z" fill="#404040"/>
<path d="M257.872 321.281C238.862 293.647 227.586 261.406 225.224 228.024L229.014 227.758C231.319 260.474 242.386 292.067 260.996 319.131L257.872 321.281Z" fill="#404040"/>
<path d="M332.407 49.8452L330.769 46.4194C335.378 44.2117 340.14 42.1752 344.921 40.3672L346.274 43.9072C341.588 45.6772 336.94 47.6755 332.407 49.8452Z" fill="#404040"/>
<path d="M349.817 42.613L348.541 39.0349C349.741 38.5972 350.96 38.1785 352.179 37.7788L353.379 41.3759C352.179 41.7756 350.998 42.1752 349.817 42.613Z" fill="#404040"/>
<path d="M595.023 220.963L591.232 220.773C591.365 218.279 591.422 215.767 591.441 213.331C591.841 165.427 573.517 120.207 539.821 85.987C508.049 53.7085 465.572 34.6384 420.219 32.2974L420.409 28.51C466.715 30.889 510.068 50.3589 542.526 83.3225C576.927 118.266 595.632 164.456 595.232 213.35C595.213 215.843 595.137 218.413 595.003 220.963H595.023Z" fill="#404040"/>
<path d="M265.644 315.8C252.844 297.149 243.796 276.537 238.748 254.498L242.443 253.66C247.377 275.224 256.234 295.398 268.768 313.649L265.644 315.8Z" fill="#404040"/>
<path d="M238.767 254.498C238.062 251.395 237.414 248.217 236.881 245.058L240.614 244.411C241.148 247.494 241.776 250.596 242.462 253.641L238.767 254.479V254.498Z" fill="#404040"/>
<path d="M581.727 203.415C579.67 161.792 562.393 122.472 533.097 92.6865C501.059 60.1035 458.182 41.9468 412.371 41.5471H410.676V37.7407H412.409C459.229 38.1594 503.059 56.7158 535.802 90.022C565.746 120.473 583.403 160.669 585.518 203.206L581.727 203.396V203.415Z" fill="#404040"/>
<path d="M269.815 304.799C258.786 287.309 251.148 268.163 247.091 247.912L250.805 247.17C254.767 266.964 262.234 285.672 273.015 302.782L269.796 304.799H269.815Z" fill="#404040"/>
<path d="M426.371 51.8055C421.743 51.3678 417.038 51.1204 412.371 51.0633C408.276 51.0252 404.123 51.1394 400.028 51.4249L399.78 47.6375C403.971 47.352 408.219 47.2378 412.409 47.2759C417.171 47.314 421.99 47.5804 426.733 48.0182L426.371 51.7865V51.8055Z" fill="#404040"/>
<path d="M569.479 181.414C563.46 150.373 548.545 122.034 526.354 99.4429C500.715 73.3308 466.524 56.5635 430.104 52.2242L430.562 48.4558C467.839 52.9093 502.83 70.0573 529.078 96.7784C551.802 119.902 567.06 148.926 573.212 180.691L569.479 181.414Z" fill="#404040"/>
<path d="M271.092 287.88C265.796 277.603 261.606 266.754 258.653 255.582L262.33 254.612C265.225 265.498 269.301 276.099 274.482 286.129L271.111 287.861L271.092 287.88Z" fill="#404040"/>
<path d="M366.369 67.2025L365.265 63.5674C368.922 62.4636 372.693 61.4548 376.446 60.6174L377.284 64.3097C373.627 65.128 369.95 66.0987 366.369 67.1835V67.2025Z" fill="#404040"/>
<path d="M429.647 61.7403C423.933 61.0361 418.123 60.6555 412.371 60.5984C406.866 60.5413 401.304 60.7887 395.837 61.3216L395.456 57.5533C401.056 57.0013 406.752 56.7539 412.39 56.811C418.295 56.8681 424.238 57.2678 430.085 57.991L429.628 61.7594L429.647 61.7403Z" fill="#404040"/>
<path d="M555.802 166.207C548.659 143.769 536.144 123.005 519.63 106.161C496.601 82.6945 465.972 67.1072 433.361 62.254L433.914 58.5046C467.324 63.472 498.715 79.459 522.316 103.516C539.249 120.778 552.069 142.056 559.402 165.066L555.783 166.207H555.802Z" fill="#404040"/>
<path d="M277.054 278.421C274.33 272.616 271.968 266.583 270.006 260.493L273.625 259.332C275.53 265.27 277.835 271.151 280.501 276.803L277.073 278.421H277.054Z" fill="#404040"/>
<path d="M357.951 80.2014L356.561 76.6804C363.723 73.8447 371.151 71.5608 378.656 69.8669L379.494 73.5592C372.18 75.1959 364.942 77.4227 357.951 80.1824V80.2014Z" fill="#404040"/>
<path d="M424.332 70.7425C420.37 70.3618 416.351 70.1525 412.37 70.1144C408.846 70.0763 405.303 70.1715 401.798 70.3999L401.551 66.6125C405.151 66.3841 408.789 66.2889 412.389 66.327C416.465 66.3651 420.599 66.5935 424.675 66.9741L424.313 70.7425H424.332Z" fill="#404040"/>
<path d="M502.887 103.611C482.639 86.5772 458.048 75.5196 431.8 71.637L432.352 67.8877C459.305 71.8654 484.525 83.2086 505.325 100.699L502.887 103.592V103.611Z" fill="#404040"/>
<path d="M507.116 107.322C506.659 106.903 506.183 106.485 505.726 106.066L508.24 103.23C508.716 103.649 509.192 104.087 509.669 104.524L507.116 107.322Z" fill="#404040"/>
<path d="M546.43 168.187C539.706 147.537 528.106 128.429 512.887 112.899C511.02 110.995 509.077 109.13 507.115 107.341L509.668 104.543C511.687 106.39 513.687 108.312 515.592 110.253C531.211 126.202 543.116 145.824 550.03 167.026L546.43 168.206V168.187Z" fill="#404040"/>
<path d="M497.801 328.361L495.572 325.297C500.62 321.643 505.458 317.608 509.992 313.288L512.601 316.028C507.953 320.463 502.963 324.612 497.782 328.38L497.801 328.361Z" fill="#404040"/>
<path d="M426.352 355.063L426.028 351.295C437.248 350.305 448.353 347.945 459.039 344.291L460.277 347.869C449.305 351.638 437.895 354.055 426.371 355.063H426.352Z" fill="#404040"/>
<path d="M369.779 86.0632L368.617 82.4471C374.732 80.4868 381.036 78.9261 387.36 77.8413L388.008 81.5716C381.856 82.6374 375.741 84.1409 369.779 86.0632Z" fill="#404040"/>
<path d="M510.316 124.071C508.963 122.548 507.554 121.044 506.163 119.617C481.325 94.2281 448.01 80.0302 412.371 79.6305C405.495 79.5544 398.523 80.0111 391.704 81.0008L391.151 77.2515C398.161 76.2428 405.304 75.767 412.409 75.8431C449.057 76.2618 483.325 90.8594 508.868 116.972C510.316 118.437 511.744 119.979 513.154 121.558L510.316 124.09V124.071Z" fill="#404040"/>
<path d="M536.698 169.101C531.802 154.845 524.545 141.618 515.154 129.799L518.126 127.439C527.783 139.601 535.25 153.19 540.298 167.863L536.717 169.101H536.698Z" fill="#404040"/>
<path d="M539.898 179.892C539.288 177.475 538.602 175.039 537.859 172.66L541.478 171.537C542.24 173.973 542.945 176.466 543.574 178.959L539.898 179.873V179.892Z" fill="#404040"/>
<path d="M496.601 317.342L494.258 314.373C497.82 311.556 501.267 308.53 504.525 305.352C509.306 300.689 513.763 295.607 517.782 290.24L520.83 292.505C516.696 298.005 512.106 303.239 507.191 308.054C503.858 311.309 500.296 314.43 496.62 317.342H496.601Z" fill="#404040"/>
<path d="M421.952 345.833L421.724 342.045C438.067 341.056 453.877 337.04 468.753 330.093L470.353 333.519C455.058 340.675 438.772 344.805 421.952 345.833Z" fill="#404040"/>
<path d="M468.201 103.154C451.058 94.2091 431.743 89.375 412.371 89.1466C397.914 88.9563 383.628 91.2972 369.932 96.0553L368.675 92.4772C382.789 87.5669 397.456 85.1499 412.409 85.3592C432.371 85.6066 452.277 90.593 469.953 99.8046L468.201 103.173V103.154Z" fill="#404040"/>
<path d="M525.192 165.541C519.192 150.887 510.526 137.697 499.421 126.354C491.173 117.923 481.782 110.729 471.496 104.962L473.344 101.651C483.954 107.589 493.63 115.011 502.125 123.709C513.554 135.414 522.488 149.003 528.678 164.114L525.173 165.541H525.192Z" fill="#404040"/>
<path d="M532.468 190.702C531.173 183.337 529.173 176.047 526.563 169.043L530.125 167.711C532.83 174.943 534.887 182.461 536.221 190.055L532.487 190.721L532.468 190.702Z" fill="#404040"/>
<path d="M501.706 300.06L499.021 297.377C499.897 296.482 500.773 295.588 501.63 294.674L504.411 297.263C503.535 298.195 502.64 299.128 501.725 300.041L501.706 300.06Z" fill="#404040"/>
<path d="M418.656 336.469L418.504 332.682C438.504 331.901 458.2 326.058 475.419 315.781L477.362 319.036C459.59 329.636 439.285 335.67 418.637 336.469H418.656Z" fill="#404040"/>
<path d="M358.827 111.091L357.112 107.703C358.255 107.113 359.417 106.561 360.598 106.009L362.198 109.454C361.074 109.987 359.95 110.52 358.827 111.091Z" fill="#404040"/>
<path d="M453.267 106.77C440.2 101.574 426.447 98.8338 412.371 98.6625C400.085 98.4912 387.894 100.299 376.16 104.011L375.018 100.394C387.132 96.55 399.704 94.7039 412.428 94.8561C426.981 95.0464 441.19 97.8632 454.695 103.249L453.286 106.77H453.267Z" fill="#404040"/>
<path d="M509.154 154.617C504.563 146.814 499.02 139.563 492.677 133.073C485.039 125.251 476.334 118.57 466.791 113.222L468.639 109.911C478.506 115.43 487.515 122.339 495.401 130.427C501.935 137.146 507.668 144.625 512.43 152.695L509.154 154.617Z" fill="#404040"/>
<path d="M523.783 196.773C522.107 184.364 518.392 172.393 512.754 161.183L516.144 159.47C521.973 171.061 525.821 183.432 527.554 196.259L523.802 196.773H523.783Z" fill="#404040"/>
<path d="M416.485 327.029L416.409 323.242C444.219 322.614 470.601 311.594 490.696 292.238L493.325 294.96C472.544 314.982 445.267 326.382 416.504 327.029H416.485Z" fill="#404040"/>
<path d="M514.773 201.779C512.487 178.578 502.258 156.558 485.953 139.791C466.505 119.788 440.371 108.559 412.371 108.16C391.741 107.836 371.627 113.584 354.179 124.66L352.141 121.463C370.217 109.968 391.094 104.049 412.428 104.372C441.438 104.791 468.524 116.42 488.677 137.146C505.592 154.541 516.201 177.36 518.563 201.398L514.792 201.779H514.773Z" fill="#404040"/>
<path d="M517.745 228.462L513.992 227.872C514.754 223.076 515.173 218.184 515.249 213.312C515.268 211.961 515.249 210.61 515.23 209.258L519.021 209.163C519.059 210.571 519.059 211.961 519.04 213.369C518.964 218.413 518.526 223.494 517.745 228.462Z" fill="#404040"/>
<path d="M415.457 317.532L415.399 313.745C441.229 313.364 465.705 303.201 484.296 285.158C486.582 282.951 488.791 280.591 490.849 278.174L493.744 280.629C491.592 283.141 489.306 285.596 486.944 287.88C467.648 306.608 442.257 317.132 415.457 317.532Z" fill="#404040"/>
<path d="M358.351 133.301L356.274 130.123C363.875 125.174 372.122 121.273 380.77 118.532L381.913 122.148C373.589 124.775 365.665 128.524 358.351 133.301Z" fill="#404040"/>
<path d="M400.142 118.285L399.723 114.516C402.275 114.231 404.885 114.04 407.475 113.945L407.609 117.733C405.132 117.809 402.618 117.999 400.161 118.285H400.142Z" fill="#404040"/>
<path d="M426.218 118.913C421.666 118.17 416.999 117.752 412.37 117.695H411.342L411.361 113.888H412.428C417.247 113.964 422.085 114.402 426.828 115.163L426.218 118.913Z" fill="#404040"/>
<path d="M464.124 133.891C453.724 126.887 442.2 122.072 429.895 119.579L430.656 115.868C443.457 118.456 455.438 123.481 466.257 130.751L464.143 133.891H464.124Z" fill="#404040"/>
<path d="M505.535 205.699C504.087 183.546 494.735 162.534 479.21 146.528C476.372 143.616 473.325 140.838 470.144 138.306L472.505 135.337C475.82 137.964 479.001 140.838 481.934 143.883C498.087 160.536 507.802 182.404 509.325 205.452L505.535 205.699Z" fill="#404040"/>
<path d="M504.145 243.668L500.563 242.412C503.84 233.029 505.573 223.247 505.725 213.293C505.745 211.999 505.725 210.705 505.725 209.411L509.516 209.315C509.554 210.667 509.554 211.999 509.516 213.35C509.345 223.704 507.535 233.886 504.145 243.649V243.668Z" fill="#404040"/>
<path d="M413.951 308.016C413.418 308.016 412.885 308.016 412.37 308.016C410.847 307.997 409.323 307.921 407.799 307.826L408.046 304.038C409.513 304.133 410.961 304.19 412.428 304.209C436.828 304.647 459.971 295.455 477.572 278.402C481.629 274.462 485.362 270.142 488.639 265.536L491.724 267.725C488.315 272.521 484.448 277.032 480.219 281.123C462.257 298.5 438.79 307.997 413.951 307.997V308.016Z" fill="#404040"/>
<path d="M332.769 176.085L329.359 174.41C330.502 172.088 331.74 169.786 333.074 167.578L336.331 169.519C335.055 171.632 333.855 173.839 332.769 176.066V176.085Z" fill="#404040"/>
<path d="M338.312 166.379L335.15 164.285C335.855 163.2 336.598 162.135 337.36 161.088L340.446 163.315C339.722 164.323 339.017 165.351 338.331 166.379H338.312Z" fill="#404040"/>
<path d="M352.864 149.478L350.331 146.662C356.122 141.447 362.56 137.012 369.493 133.453L371.227 136.822C364.598 140.229 358.426 144.492 352.864 149.478Z" fill="#404040"/>
<path d="M421.837 127.896C420.599 127.744 419.38 127.61 418.123 127.496L418.447 123.709C419.742 123.823 421.037 123.956 422.314 124.127L421.837 127.896Z" fill="#404040"/>
<path d="M439.934 132.235C437.591 131.398 435.21 130.656 432.81 130.027L433.781 126.354C436.276 127.02 438.772 127.782 441.21 128.657L439.934 132.235Z" fill="#404040"/>
<path d="M413.952 298.519C413.419 298.519 412.885 298.519 412.352 298.519C411.228 298.5 410.123 298.462 409.019 298.386L409.228 294.598C410.295 294.655 411.342 294.693 412.409 294.713C434.257 295.093 455.02 286.928 470.829 271.703C486.792 256.306 495.801 235.58 496.201 213.312C496.601 190.835 488.163 169.5 472.468 153.266C470.334 151.058 468.048 148.926 465.667 146.966L468.087 144.054C470.563 146.11 472.944 148.317 475.191 150.639C491.592 167.616 500.411 189.903 499.992 213.388C499.573 236.665 490.163 258.342 473.458 274.443C457.305 290.012 436.219 298.538 413.933 298.538L413.952 298.519Z" fill="#404040"/>
<path d="M333.493 209.734L329.702 209.487C331.036 188.951 339.912 169.824 354.674 155.607C369.341 141.485 388.58 133.434 408.847 132.939L408.942 136.727C389.627 137.203 371.284 144.892 357.303 158.347C343.207 171.898 334.75 190.15 333.493 209.734Z" fill="#404040"/>
<path d="M474.925 171.651C472.258 167.483 469.172 163.562 465.725 159.984C461.439 155.53 456.601 151.61 451.362 148.317L453.381 145.101C458.886 148.546 463.972 152.676 468.467 157.358C472.087 161.107 475.325 165.237 478.125 169.614L474.925 171.651Z" fill="#404040"/>
<path d="M480.22 181.433C479.229 179.187 478.086 176.961 476.867 174.81L480.162 172.926C481.458 175.191 482.639 177.532 483.686 179.873L480.22 181.414V181.433Z" fill="#404040"/>
<path d="M415.323 288.984L415.247 285.196C433.514 284.854 450.867 277.66 464.105 264.965C478.277 251.376 486.277 233.029 486.677 213.312C486.849 204.824 485.572 196.45 482.887 188.38L486.487 187.181C489.306 195.65 490.639 204.481 490.468 213.388C490.049 234.114 481.629 253.413 466.734 267.706C452.791 281.085 434.543 288.641 415.323 289.003V288.984Z" fill="#404040"/>
<path d="M339.607 223.856C339.169 220.373 338.998 216.814 339.074 213.293C339.493 193.823 347.417 175.743 361.418 162.344C375.265 149.098 393.399 142.037 412.447 142.456C415.457 142.513 418.504 142.779 421.495 143.236L420.924 146.985C418.085 146.548 415.209 146.3 412.352 146.243C394.313 145.862 377.151 152.543 364.046 165.085C350.789 177.779 343.265 194.927 342.865 213.388C342.789 216.719 342.96 220.088 343.379 223.399L339.607 223.856Z" fill="#404040"/>
<path d="M414.98 279.468L414.923 275.68C430.771 275.433 445.857 269.229 457.381 258.228C469.743 246.428 476.772 230.479 477.153 213.293C477.553 195.898 471.095 179.359 459 166.703C451.495 158.861 442.066 152.923 431.704 149.536L432.885 145.938C443.819 149.517 453.8 155.797 461.724 164.076C474.524 177.456 481.343 194.965 480.924 213.369C480.505 231.564 473.076 248.465 459.971 260.95C447.743 272.616 431.761 279.182 414.942 279.449L414.98 279.468Z" fill="#404040"/>
<path d="M413.952 269.971C413.418 269.971 412.885 269.971 412.352 269.952H411.856L411.99 266.145H412.447C426.695 266.583 440.257 261.349 450.657 251.491C461.229 241.499 467.248 227.929 467.648 213.293C468.048 198.448 462.581 184.288 452.276 173.44C441.819 162.439 427.647 156.159 412.352 155.759C396.846 155.378 382.084 161.069 370.77 171.822C359.303 182.728 352.769 197.477 352.388 213.388C352.217 220.411 353.265 227.377 355.512 234.057L351.912 235.256C349.512 228.157 348.407 220.754 348.579 213.293C348.998 196.374 355.931 180.672 368.141 169.062C380.179 157.624 395.913 151.515 412.428 151.972C428.733 152.39 443.838 159.09 455 170.832C466.01 182.423 471.839 197.535 471.42 213.407C471 229.052 464.543 243.573 453.248 254.269C442.505 264.452 428.581 269.99 413.933 269.99L413.952 269.971Z" fill="#404040"/>
<path d="M413.952 260.455C413.419 260.455 412.866 260.455 412.333 260.436C410.199 260.359 408.047 260.15 405.952 259.789L406.599 256.058C408.542 256.382 410.523 256.591 412.466 256.667C424.162 257.067 435.324 252.842 443.934 244.772C452.696 236.569 457.743 225.378 458.124 213.293C458.524 200.979 454.048 189.217 445.534 180.158C436.867 170.947 425.076 165.675 412.352 165.275C399.38 164.875 387.018 169.595 377.513 178.559C367.856 187.657 362.313 200.028 361.932 213.407C361.76 219.517 362.675 225.55 364.675 231.355L361.094 232.592C358.941 226.368 357.951 219.878 358.141 213.293C358.56 198.924 364.522 185.601 374.923 175.8C385.17 166.15 398.523 161.069 412.485 161.488C426.238 161.906 438.962 167.616 448.315 177.551C457.515 187.333 462.353 200.066 461.934 213.388C461.515 226.501 456.048 238.625 446.543 247.513C437.591 255.887 426.086 260.455 413.971 260.455H413.952Z" fill="#404040"/>
<path d="M413.876 250.939C413.362 250.939 412.828 250.939 412.314 250.9C408.542 250.748 404.828 250.025 401.285 248.75L402.561 245.172C405.742 246.314 409.095 246.961 412.485 247.113C421.457 247.513 430.505 244.182 437.21 237.997C444.067 231.678 448.219 222.657 448.6 213.236C448.981 203.606 445.4 193.994 438.791 186.838C432.029 179.53 422.39 175.134 412.333 174.753C402.066 174.372 391.818 178.198 384.237 185.259C376.37 192.567 371.837 202.559 371.456 213.369C371.227 220.087 372.656 226.863 375.627 232.934L372.218 234.609C368.98 227.967 367.399 220.582 367.646 213.236C368.065 201.398 373.037 190.473 381.647 182.48C389.971 174.753 401.19 170.547 412.466 170.966C423.514 171.384 434.124 176.218 441.572 184.25C448.867 192.129 452.81 202.749 452.391 213.369C451.972 223.78 447.381 233.772 439.781 240.756C432.733 247.246 423.362 250.9 413.876 250.9V250.939Z" fill="#404040"/>
<path d="M413.876 241.441C413.343 241.441 412.809 241.441 412.276 241.403C404.98 240.985 398.066 237.654 393.285 232.268C388.656 227.034 386.237 220.106 386.675 213.236C387.094 206.575 390.18 200.275 395.133 195.955C399.933 191.768 406.257 189.617 412.504 190.055C418.543 190.473 424.238 193.309 428.124 197.82C431.876 202.178 433.762 207.888 433.305 213.502C432.867 218.907 430.295 223.989 426.219 227.415C422.314 230.707 417.19 232.344 412.2 231.887C407.419 231.45 402.942 229.109 399.971 225.474C397.114 222.01 395.742 217.499 396.199 213.141C396.637 208.973 398.733 205.147 401.933 202.597C404.961 200.18 408.866 199.076 412.619 199.552C416.162 200.009 419.381 201.855 421.476 204.614C423.438 207.222 424.276 210.514 423.781 213.616C423.324 216.528 421.705 219.136 419.362 220.754C417.171 222.257 414.485 222.828 411.99 222.295C409.685 221.8 407.685 220.411 406.542 218.47C405.476 216.681 405.209 214.587 405.819 212.722C406.371 211.009 407.59 209.658 409.152 209.011C410.6 208.421 412.181 208.535 413.4 209.315C414.6 210.077 415.266 211.39 415.114 212.684C414.943 214.111 413.762 215.196 412.39 215.196V211.409C411.8 211.409 411.4 211.827 411.343 212.246C411.323 212.417 411.362 212.532 411.4 212.551C411.228 212.437 410.923 212.398 410.581 212.551C410.066 212.76 409.647 213.255 409.438 213.883C409.171 214.72 409.304 215.691 409.819 216.547C410.428 217.575 411.514 218.317 412.79 218.584C414.276 218.907 415.876 218.546 417.209 217.632C418.714 216.605 419.743 214.911 420.047 213.007C420.39 210.895 419.8 208.668 418.466 206.879C417 204.919 414.695 203.625 412.162 203.301C409.419 202.959 406.561 203.777 404.314 205.547C401.914 207.45 400.333 210.362 399.99 213.521C399.628 216.89 400.695 220.354 402.904 223.056C405.247 225.911 408.771 227.757 412.562 228.1C416.562 228.481 420.657 227.148 423.8 224.503C427.114 221.724 429.21 217.594 429.552 213.179C429.914 208.554 428.352 203.853 425.267 200.275C422.028 196.526 417.305 194.166 412.257 193.823C407 193.442 401.685 195.27 397.647 198.79C393.456 202.464 390.828 207.812 390.485 213.464C390.104 219.326 392.18 225.264 396.142 229.756C400.257 234.4 406.219 237.254 412.504 237.616C419 237.978 425.552 235.675 430.486 231.278C435.572 226.73 438.695 220.164 439.057 213.236C439.438 206.118 436.867 198.943 432.01 193.576C427.019 188.056 419.819 184.669 412.276 184.307C404.504 183.907 396.733 186.743 390.923 192.034C384.942 197.458 381.304 205.261 380.942 213.426C380.694 218.717 381.818 224.065 384.18 228.861L380.77 230.536C378.142 225.169 376.885 219.193 377.151 213.255C377.57 204.1 381.666 195.327 388.371 189.236C394.923 183.279 403.685 180.101 412.466 180.52C421 180.938 429.152 184.764 434.829 191.044C440.353 197.154 443.267 205.318 442.848 213.445C442.429 221.363 438.848 228.88 433 234.095C427.724 238.815 420.828 241.441 413.857 241.441H413.876Z" fill="#404040"/>
<path d="M241.567 347.355C211.966 309.158 195.871 261.558 196.213 213.312V211.523L200.023 211.58V213.331C199.661 260.721 215.49 307.502 244.576 345.033L241.567 347.355Z" fill="#404040"/>
<path d="M231.205 104.201L227.967 102.222C228.633 101.137 229.319 100.052 230.005 98.967L233.205 101.003C232.538 102.069 231.853 103.135 231.205 104.201Z" fill="#404040"/>
<path d="M235.263 97.825L232.101 95.7315C233.51 93.5999 234.977 91.4683 236.463 89.4128L239.548 91.6206C238.101 93.657 236.653 95.7505 235.263 97.825Z" fill="#404040"/>
<path d="M241.758 88.5756L238.71 86.3108C241.758 82.2189 244.977 78.1841 248.31 74.3206L251.186 76.7947C247.91 80.6012 244.748 84.5598 241.758 88.5756Z" fill="#404040"/>
<path d="M272.463 55.3835L269.968 52.5287C295.054 30.6608 325.359 14.7118 357.589 6.43286L358.541 10.1061C326.883 18.2328 297.111 33.8962 272.463 55.3835Z" fill="#404040"/>
<path d="M491.744 9.42102C488.258 8.03168 484.677 6.71846 481.115 5.51944L482.334 1.92236C485.953 3.14042 489.611 4.4917 493.154 5.90008L491.763 9.42102H491.744Z" fill="#404040"/>
<path d="M512.335 18.8418C510.107 17.6809 507.84 16.5389 505.573 15.4731L507.211 12.0474C509.516 13.1512 511.821 14.3122 514.088 15.4922L512.335 18.8609V18.8418Z" fill="#404040"/>
<path d="M627.519 182.156C621.137 136.004 599.575 92.2867 566.774 59.0566C552.603 44.7064 536.526 32.3926 518.964 22.4388L520.831 19.1462C538.698 29.2713 555.06 41.7945 569.46 56.3921C602.832 90.1932 624.776 134.671 631.252 181.643L627.499 182.156H627.519Z" fill="#404040"/>
<path d="M236.958 356.872C204.176 316.333 186.328 265.346 186.671 213.312C186.671 212.551 186.671 211.809 186.69 211.047L190.48 211.123C190.48 211.866 190.461 212.608 190.461 213.35C190.119 264.509 207.662 314.639 239.891 354.493L236.939 356.872H236.958Z" fill="#404040"/>
<path d="M191.623 192.301L187.852 191.92C188.099 189.408 188.423 186.838 188.766 184.288L192.518 184.802C192.175 187.314 191.871 189.826 191.623 192.301Z" fill="#404040"/>
<path d="M216.957 109.854L213.624 108.045C220.9 94.5327 229.605 81.7431 239.491 70.0002L242.387 72.4364C232.672 83.9698 224.119 96.5501 216.957 109.834V109.854Z" fill="#404040"/>
<path d="M271.949 43.3742L269.549 40.4433C292.083 22.1153 317.569 8.50737 345.341 0.019043L346.446 3.63515C319.15 11.9903 294.083 25.3698 271.949 43.3742Z" fill="#404040"/>
<path d="M638.528 196.259C634.794 142.132 611.708 91.0116 573.498 52.3383C562.659 41.3568 550.64 31.4411 537.802 22.8766L539.916 19.7173C552.983 28.434 565.193 38.502 576.203 49.6548C615.042 88.9752 638.528 140.952 642.318 195.993L638.528 196.259Z" fill="#404040"/>
<path d="M229.586 362.905C195.432 320.672 176.803 267.554 177.165 213.331C177.165 210.933 177.242 208.516 177.318 206.118L181.108 206.251C181.013 208.611 180.975 210.971 180.956 213.331C180.613 266.678 198.918 318.959 232.538 360.507L229.586 362.886V362.905Z" fill="#404040"/>
<path d="M182.156 191.197L178.385 190.816C178.651 188.285 178.956 185.735 179.299 183.203L183.052 183.717C182.709 186.21 182.423 188.704 182.156 191.216V191.197Z" fill="#404040"/>
<path d="M201.928 118.665L198.48 117.086C199.014 115.925 199.547 114.764 200.1 113.603L203.528 115.24C202.976 116.381 202.462 117.523 201.928 118.665Z" fill="#404040"/>
<path d="M205.185 111.852L201.795 110.158C212.1 89.4892 225.376 70.5141 241.243 53.7468L244.005 56.3542C228.386 72.8551 215.338 91.5256 205.205 111.852H205.185Z" fill="#404040"/>
<path d="M254.73 45.7152L252.158 42.9365C253.092 42.061 254.044 41.2046 254.996 40.3481L257.53 43.1649C256.596 44.0023 255.663 44.8588 254.73 45.7152Z" fill="#404040"/>
<path d="M275.13 28.9098L272.882 25.8457C286.806 15.6445 301.911 6.9658 317.74 0.0761719L319.264 3.55905C303.683 10.3345 288.844 18.8609 275.13 28.9098Z" fill="#404040"/>
<path d="M652.357 215.634L648.566 215.577C648.566 214.835 648.585 214.073 648.585 213.331C648.985 150.182 624.718 90.6118 580.241 45.6009C570.355 35.59 559.498 26.4165 548.012 18.3278L550.202 15.2256C561.879 23.4475 572.907 32.7732 582.965 42.9364C628.147 88.6706 652.814 149.193 652.414 213.35C652.414 214.111 652.414 214.873 652.395 215.634H652.357Z" fill="#404040"/>
<path d="M223.738 370.803C187.204 326.553 167.261 270.618 167.623 213.331V211.295L171.433 211.352V213.369C171.052 269.78 190.671 324.84 226.653 368.405L223.719 370.822L223.738 370.803Z" fill="#404040"/>
<path d="M173.279 184.973L169.508 184.497C169.66 183.222 169.832 181.966 170.022 180.691L173.775 181.224C173.603 182.461 173.432 183.717 173.279 184.973Z" fill="#404040"/>
<path d="M189.623 123.081L186.118 121.634C196.423 96.6832 210.69 73.7875 228.538 53.5564L231.395 56.0686C213.833 75.9953 199.795 98.5293 189.642 123.1L189.623 123.081Z" fill="#404040"/>
<path d="M233.891 53.252L231.091 50.7017C234.024 47.4852 237.072 44.3069 240.177 41.2427C242.52 38.9208 244.939 36.6369 247.377 34.4102L249.929 37.2079C247.529 39.3775 245.148 41.6424 242.843 43.9262C239.796 46.9333 236.786 50.0546 233.91 53.2329L233.891 53.252Z" fill="#404040"/>
<path d="M273.51 18.3471L271.339 15.2449C278.653 10.1252 286.311 5.34815 294.139 1.06592L295.968 4.39654C288.273 8.62167 280.71 13.3226 273.51 18.3661V18.3471Z" fill="#404040"/>
<path d="M658.09 208.135C657.138 144.397 631.88 84.2934 586.984 38.8637C574.412 26.1503 560.431 14.7881 545.421 5.08169L547.478 1.90332C562.717 11.762 576.907 23.2954 589.669 36.1992C635.27 82.3141 660.909 143.35 661.881 208.078L658.09 208.135Z" fill="#404040"/>
<path d="M218.766 379.672C204.671 363.095 192.747 344.748 183.299 325.164L186.708 323.527C196.004 342.826 207.756 360.906 221.643 377.236L218.747 379.691L218.766 379.672Z" fill="#404040"/>
<path d="M172.938 300.403C163.414 273.796 158.442 245.971 158.118 217.747L161.909 217.708C162.233 245.533 167.147 272.921 176.519 299.147L172.938 300.422V300.403Z" fill="#404040"/>
<path d="M163.832 183.774L160.061 183.298C160.384 180.767 160.727 178.236 161.127 175.705L164.88 176.295C164.499 178.788 164.137 181.281 163.832 183.774Z" fill="#404040"/>
<path d="M173.509 139.562L169.89 138.421C180.404 105.171 197.3 74.9865 220.138 48.6841L222.996 51.1773C200.5 77.08 183.852 106.827 173.49 139.562H173.509Z" fill="#404040"/>
<path d="M225.51 48.3225L222.69 45.7912C226.138 41.9467 229.757 38.1403 233.434 34.5051C236.995 30.9842 240.729 27.5203 244.5 24.2278L246.996 27.0826C243.281 30.3371 239.624 33.7438 236.1 37.2077C232.462 40.7857 228.9 44.5351 225.51 48.3225Z" fill="#404040"/>
<path d="M258.653 17.4715L256.329 14.4644C262.367 9.78248 268.71 5.32896 275.149 1.21802L277.187 4.41542C270.844 8.46926 264.596 12.8466 258.653 17.4524V17.4715Z" fill="#404040"/>
<path d="M671.253 221.629L667.462 221.477C667.557 218.736 667.633 215.996 667.633 213.312C668.033 145.082 641.785 80.7342 593.708 32.1261C585.136 23.4665 575.86 15.3398 566.146 7.99339L568.431 4.96729C578.298 12.4279 587.708 20.6688 596.394 29.4616C645.176 78.7929 671.824 144.092 671.424 213.331C671.424 216.053 671.348 218.831 671.234 221.629H671.253Z" fill="#404040"/>
<path d="M215.357 390.273C204.328 377.864 194.423 364.37 185.928 350.134L189.185 348.193C197.566 362.22 207.319 375.542 218.195 387.761L215.357 390.273Z" fill="#404040"/>
<path d="M157.603 283.255C157.279 282.018 156.956 280.781 156.632 279.544L160.308 278.611C160.613 279.829 160.937 281.047 161.261 282.265L157.603 283.255Z" fill="#404040"/>
<path d="M155.718 275.814C153.661 267.135 152.023 258.266 150.842 249.435L154.594 248.94C155.756 257.638 157.356 266.393 159.394 274.938L155.699 275.814H155.718Z" fill="#404040"/>
<path d="M148.689 222.695C148.612 220.145 148.574 217.594 148.574 215.025H152.365C152.365 217.537 152.403 220.068 152.479 222.581L148.689 222.695Z" fill="#404040"/>
<path d="M155.089 177.36L151.337 176.808C151.527 175.552 151.718 174.277 151.927 173.021L155.68 173.63C155.489 174.867 155.28 176.123 155.108 177.36H155.089Z" fill="#404040"/>
<path d="M156.975 166.189L153.241 165.484C159.527 132.597 171.832 101.613 189.832 73.3879L193.033 75.4244C175.299 103.23 163.146 133.777 156.956 166.189H156.975Z" fill="#404040"/>
<path d="M210.766 50.9301L207.833 48.532C208.633 47.5423 209.452 46.5527 210.271 45.582L213.185 48.0181C212.366 48.9888 211.566 49.9594 210.766 50.9301Z" fill="#404040"/>
<path d="M223.242 36.7511L220.48 34.1437C222.5 32.0121 224.595 29.8615 226.709 27.787C230.043 24.4944 233.528 21.2399 237.014 18.1377L239.528 20.9735C236.081 24.0377 232.652 27.2351 229.376 30.4895C227.3 32.545 225.242 34.6385 223.242 36.7511Z" fill="#404040"/>
<path d="M242.367 18.4801L239.891 15.6063C246.157 10.2011 252.767 5.04342 259.529 0.266357L261.72 3.36859C255.053 8.08856 248.538 13.1701 242.367 18.4991V18.4801Z" fill="#404040"/>
<path d="M675.176 179.454C668.033 121.615 641.499 66.917 600.451 25.4269C597.003 21.9441 593.441 18.5373 589.841 15.2828L592.393 12.4661C596.05 15.7777 599.67 19.2415 603.155 22.7624C644.794 64.8425 671.728 120.321 678.947 178.997L675.176 179.454Z" fill="#404040"/>
<path d="M233.338 421.409C232.367 420.572 231.414 419.734 230.462 418.878L232.995 416.061C233.929 416.899 234.881 417.736 235.833 418.554L233.338 421.409Z" fill="#404040"/>
<path d="M216.633 405.613C204.176 392.804 192.918 378.72 183.185 363.742L186.366 361.687C195.966 376.455 207.052 390.349 219.338 402.986L216.614 405.632L216.633 405.613Z" fill="#404040"/>
<path d="M139.051 215.139V213.331C139.089 207.564 139.298 201.741 139.698 195.993L143.489 196.259C143.089 201.931 142.879 207.679 142.841 213.35V215.139H139.051Z" fill="#404040"/>
<path d="M149.546 155.15L145.851 154.312C152.689 124.261 164.48 95.7886 180.88 69.7146L184.099 71.732C167.927 97.4444 156.289 125.517 149.546 155.15Z" fill="#404040"/>
<path d="M199.281 50.0735L196.29 47.7516C200.195 42.7271 204.328 37.7598 208.576 33.0398L211.395 35.5711C207.205 40.2339 203.147 45.1252 199.281 50.0735Z" fill="#404040"/>
<path d="M213.928 32.7542L211.128 30.1848C213.985 27.0826 216.957 24.0184 219.947 21.0494C226.919 14.1598 234.347 7.5937 242.005 1.50342L244.367 4.47243C236.805 10.4676 229.49 16.9575 222.614 23.752C219.661 26.6639 216.728 29.709 213.909 32.7542H213.928Z" fill="#404040"/>
<path d="M684.796 179.701C677.844 120.778 651.348 64.7092 610.204 21.8108L612.947 19.1843C654.662 62.6727 681.501 119.522 688.568 179.264L684.796 179.701Z" fill="#404040"/>
<path d="M224.462 426.282C220.043 422.342 215.7 418.231 211.528 414.025C203.7 406.127 196.271 397.676 189.433 388.902L192.423 386.581C199.166 395.221 206.5 403.557 214.214 411.36C218.328 415.509 222.614 419.582 226.976 423.465L224.443 426.301L224.462 426.282Z" fill="#404040"/>
<path d="M133.431 206.974L129.641 206.86C129.888 197.953 130.574 188.951 131.66 180.12L135.431 180.596C134.345 189.313 133.679 198.182 133.431 206.974Z" fill="#404040"/>
<path d="M139.927 154.522L136.213 153.703C143.165 122.357 155.318 92.6674 172.309 65.4514L175.528 67.4498C158.766 94.3041 146.765 123.595 139.908 154.522H139.927Z" fill="#404040"/>
<path d="M183.909 54.8505L180.804 52.6809C186.651 44.3448 193.033 36.2371 199.776 28.6052L202.633 31.1175C196.004 38.6542 189.699 46.6477 183.928 54.8696L183.909 54.8505Z" fill="#404040"/>
<path d="M207.68 25.484L204.899 22.8956C205.776 21.963 206.652 21.0305 207.528 20.0979L210.271 22.7243C209.395 23.6379 208.538 24.5514 207.68 25.484Z" fill="#404040"/>
<path d="M212.919 20.0218L210.214 17.3763C211.204 16.3486 212.214 15.3399 213.242 14.3502C217.662 9.99182 222.29 5.70959 226.976 1.63672L229.452 4.51057C224.824 8.52635 220.252 12.7325 215.89 17.0527C214.881 18.0424 213.89 19.0321 212.9 20.0408L212.919 20.0218Z" fill="#404040"/>
<path d="M694.053 176.79C686.796 118.532 662.11 64.7093 622.623 21.1448L625.442 18.5945C665.443 62.749 690.472 117.295 697.825 176.333L694.053 176.809V176.79Z" fill="#404040"/>
<path d="M124.079 202.083L120.288 201.912C120.517 196.849 120.879 191.692 121.374 186.629L125.145 186.991C124.669 191.996 124.307 197.078 124.079 202.083Z" fill="#404040"/>
<path d="M130.441 153.399L126.727 152.6C136.536 107.665 157.184 65.128 186.385 29.6331L189.318 32.0501C160.48 67.0883 140.117 109.054 130.441 153.399Z" fill="#404040"/>
<path d="M191.737 29.1383L188.842 26.6832C194.423 20.098 200.347 13.6652 206.499 7.59394L207.452 6.64233L210.099 9.3449L209.147 10.2775C203.09 16.2726 197.223 22.6103 191.718 29.1193L191.737 29.1383Z" fill="#404040"/>
<path d="M695.1 133.606C684.224 94.3613 665.69 58.4286 639.994 26.7972L642.947 24.3992C668.966 56.4302 687.748 92.8387 698.757 132.597L695.1 133.606Z" fill="#404040"/>
<path d="M114.822 196.792L111.031 196.564C111.336 191.482 111.774 186.344 112.346 181.3L116.117 181.719C115.565 186.705 115.127 191.768 114.822 196.792Z" fill="#404040"/>
<path d="M119.507 159.28L115.773 158.576C126.097 104.258 151.165 53.88 188.232 12.9038L191.051 15.4541C154.441 55.9164 129.698 105.647 119.507 159.28Z" fill="#404040"/>
<path d="M105.393 194.965L101.603 194.718C105.698 131.493 128.632 71.8462 167.928 22.1914L170.899 24.5514C132.098 73.5972 109.45 132.521 105.393 194.984V194.965Z" fill="#404040"/>
<path d="M173.28 21.5824L170.327 19.2034C171.927 17.2241 173.565 15.2638 175.222 13.3035L178.118 15.7586C176.48 17.6809 174.861 19.6221 173.28 21.5824Z" fill="#404040"/>
<path d="M95.9829 192.872L92.1924 192.605C96.5734 129.533 119.26 69.7337 157.794 19.6602L160.803 21.963C122.726 71.4466 100.307 130.541 95.9639 192.853L95.9829 192.872Z" fill="#404040"/>
<path d="M163.146 18.9941L160.175 16.6531C161.756 14.6547 163.356 12.6564 164.994 10.696L167.927 13.1131C166.308 15.0544 164.727 17.0147 163.165 18.9941H163.146Z" fill="#404040"/>
<path d="M87.6592 179.264L83.8877 178.845C89.6021 126.811 107.907 76.2427 136.841 32.6401L140.003 34.7337C111.412 77.8414 93.2974 127.82 87.6592 179.264Z" fill="#404040"/>
<path d="M142.098 31.5933L138.955 29.4617C141.088 26.3214 143.317 23.1621 145.584 20.0789L148.651 22.3246C146.422 25.3888 144.212 28.5101 142.098 31.5933Z" fill="#404040"/>
<path d="M78.3448 176.808L74.5732 176.371C74.859 173.839 75.1828 171.308 75.5256 168.777L79.2781 169.291C78.9352 171.784 78.6305 174.296 78.3448 176.808Z" fill="#404040"/>
<path d="M80.4019 161.811L76.6494 161.221C84.1924 114.117 101.183 69.9811 127.184 29.9946L130.365 32.0501C104.669 71.5798 87.8497 115.24 80.3828 161.811H80.4019Z" fill="#404040"/>
<path d="M70.5728 162.953L66.8203 162.382C73.9824 115.278 90.4018 70.8947 115.602 30.4705L118.821 32.4688C93.9066 72.4553 77.6586 116.362 70.5728 162.953Z" fill="#404040"/>
<path d="M61.9629 156.482L58.2295 155.854C58.439 154.598 58.6485 153.342 58.8771 152.086L62.6105 152.752C62.382 153.989 62.1724 155.245 61.9629 156.482Z" fill="#404040"/>
<path d="M64.7827 141.599L61.0684 140.819C69.2781 101.955 83.7927 64.9567 104.193 30.8701L107.45 32.8114C87.2594 66.5363 72.8972 103.135 64.7827 141.599Z" fill="#404040"/>
<path d="M59.1255 124.032L55.4492 123.081C55.773 121.844 56.0969 120.606 56.4207 119.388L60.0779 120.378C59.7541 121.596 59.4303 122.814 59.1064 124.032H59.1255Z" fill="#404040"/>
<path d="M74.5732 77.3466L71.0684 75.9192C77.7923 59.4374 85.7925 43.2981 94.8403 27.9583L98.1166 29.8805C89.164 45.0491 81.24 61.0171 74.5732 77.3466Z" fill="#404040"/>
<path d="M69.9257 63.967L66.459 62.4444C71.602 50.8158 77.3926 39.3204 83.6594 28.2817L86.9547 30.1659C80.745 41.0904 75.0115 52.4716 69.9257 63.986V63.967Z" fill="#404040"/>
<path d="M60.8398 60.9599L57.373 59.4373C62.4779 47.8087 68.2304 36.2942 74.4591 25.2175L77.7735 27.0827C71.6019 38.0452 65.9066 49.4454 60.8588 60.9599H60.8398Z" fill="#404040"/>
<path d="M50.2866 61.3787L46.8008 59.8942C51.2771 49.3694 56.2486 38.9208 61.6201 28.8337L64.9726 30.6037C59.6582 40.5956 54.7248 50.9491 50.2866 61.3596V61.3787Z" fill="#404040"/>
<path d="M36.9726 68.8011L33.4297 67.4308C38.0393 55.5928 43.2775 43.85 48.9919 32.5068L52.3825 34.2007C46.7252 45.4487 41.5441 57.0773 36.9726 68.8011Z" fill="#404040"/>
<path d="M25.2954 72.7407L21.7334 71.4275C25.6763 60.7124 30.1336 50.0163 34.9527 39.6628L38.4004 41.2615C33.6194 51.5199 29.2193 62.1208 25.3144 72.7407H25.2954Z" fill="#404040"/>
<path d="M15.0478 73.1025L11.4668 71.8273C11.9049 70.6283 12.324 69.4292 12.7621 68.2302L16.324 69.5434C15.8859 70.7234 15.4478 71.9225 15.0288 73.1025H15.0478Z" fill="#404040"/>
<path d="M17.6572 65.9843L14.1143 64.6521C15.9048 59.9131 17.8096 55.136 19.7715 50.4541L23.2764 51.9196C21.3335 56.5634 19.4287 61.3024 17.6572 66.0033V65.9843Z" fill="#404040"/>
<path d="M26.2675 44.9539L22.8008 43.4314C23.3151 42.2704 23.8294 41.1094 24.3627 39.9485L27.8295 41.5091C27.3152 42.6701 26.8009 43.812 26.2866 44.973L26.2675 44.9539Z" fill="#404040"/>
<path d="M3.60008 77.0231L0 75.8051C0.400009 74.606 0.819065 73.388 1.23812 72.189L4.81915 73.4261C4.40009 74.6251 4.00009 75.8241 3.60008 77.0041V77.0231Z" fill="#404040"/>
</g>
<defs>
<clipPath id="clip0_299_4064">
<rect width="640" height="426.282" fill="white"/>
</clipPath>
</defs>
</svg>
