<svg width="12" height="12" viewBox="0 0 12 12" fill="none" xmlns="http://www.w3.org/2000/svg">
<path d="M8.97002 6.50001C8.90422 6.50039 8.83899 6.48778 8.77807 6.46289C8.71715 6.43801 8.66174 6.40135 8.61502 6.35501L6.00002 3.74501L3.38502 6.36001C3.3402 6.41235 3.28504 6.45486 3.22301 6.48487C3.16097 6.51488 3.09341 6.53175 3.02455 6.53441C2.95569 6.53707 2.88702 6.52547 2.82286 6.50033C2.7587 6.47519 2.70042 6.43706 2.6517 6.38833C2.60297 6.33961 2.56484 6.28133 2.5397 6.21717C2.51456 6.15301 2.50296 6.08434 2.50562 6.01548C2.50828 5.94662 2.52515 5.87906 2.55516 5.81702C2.58517 5.75499 2.62768 5.69983 2.68002 5.65501L5.64502 2.68501C5.6915 2.63814 5.7468 2.60095 5.80773 2.57556C5.86866 2.55018 5.93402 2.53711 6.00002 2.53711C6.06603 2.53711 6.13138 2.55018 6.19231 2.57556C6.25324 2.60095 6.30854 2.63814 6.35502 2.68501L9.32002 5.65501C9.41315 5.74869 9.46542 5.87542 9.46542 6.00751C9.46542 6.1396 9.41315 6.26633 9.32002 6.36001C9.22609 6.45055 9.10048 6.50079 8.97002 6.50001Z" fill="#04839F"/>
<path opacity="0.3" d="M6 9.50001C5.86739 9.50001 5.74021 9.44733 5.64645 9.35356C5.55268 9.25979 5.5 9.13262 5.5 9.00001V3.04001C5.5 2.9074 5.55268 2.78022 5.64645 2.68646C5.74021 2.59269 5.86739 2.54001 6 2.54001C6.13261 2.54001 6.25979 2.59269 6.35355 2.68646C6.44732 2.78022 6.5 2.9074 6.5 3.04001V9.00001C6.5 9.13262 6.44732 9.25979 6.35355 9.35356C6.25979 9.44733 6.13261 9.50001 6 9.50001Z" fill="#04839F"/>
</svg>
