<svg width="24" height="24" viewBox="0 0 24 24" fill="none" xmlns="http://www.w3.org/2000/svg">
<path d="M15.9299 11.4568L7.57045 3.49181C7.43096 3.35884 7.24565 3.28467 7.05295 3.28467C6.86024 3.28467 6.67493 3.35884 6.53545 3.49181L6.52645 3.50081C6.45859 3.56527 6.40456 3.64286 6.36764 3.72886C6.33072 3.81486 6.31168 3.90747 6.31168 4.00106C6.31168 4.09465 6.33072 4.18726 6.36764 4.27326C6.40456 4.35926 6.45859 4.43685 6.52645 4.50131L14.3984 12.0013L6.52645 19.4983C6.45859 19.5628 6.40456 19.6404 6.36764 19.7264C6.33072 19.8124 6.31168 19.905 6.31168 19.9986C6.31168 20.0921 6.33072 20.1848 6.36764 20.2708C6.40456 20.3568 6.45859 20.4343 6.52645 20.4988L6.53545 20.5078C6.67493 20.6408 6.86024 20.715 7.05295 20.715C7.24565 20.715 7.43096 20.6408 7.57045 20.5078L15.9299 12.5428C16.0035 12.4728 16.062 12.3885 16.102 12.2952C16.142 12.2018 16.1626 12.1014 16.1626 11.9998C16.1626 11.8983 16.142 11.7978 16.102 11.7044C16.062 11.6111 16.0035 11.5269 15.9299 11.4568Z" fill="#252525"/>
</svg>
