<svg width="16" height="17" viewBox="0 0 16 17" fill="none" xmlns="http://www.w3.org/2000/svg">
<path fill-rule="evenodd" clip-rule="evenodd" d="M10.0616 4.40241C10.082 4.32628 10.1172 4.25493 10.1652 4.19242C10.2132 4.12991 10.2731 4.07747 10.3414 4.0381C10.4096 3.99872 10.485 3.97318 10.5631 3.96294C10.6413 3.9527 10.7207 3.95796 10.7968 3.97841L14.6208 5.00321C14.697 5.02354 14.7684 5.05869 14.831 5.10666C14.8936 5.15462 14.9462 5.21446 14.9856 5.28274C15.0251 5.35103 15.0507 5.42642 15.061 5.5046C15.0713 5.58279 15.066 5.66224 15.0456 5.73841L14.0208 9.56241C13.9776 9.71377 13.8768 9.84211 13.7399 9.91977C13.603 9.99744 13.441 10.0182 13.289 9.97759C13.1369 9.93697 13.0069 9.83824 12.927 9.70266C12.847 9.56709 12.8235 9.40553 12.8616 9.25281L13.5096 6.83521C11.7568 7.91246 10.2356 9.32733 9.0344 10.9976C8.98365 11.0682 8.91816 11.127 8.84246 11.1698C8.76677 11.2126 8.68267 11.2384 8.596 11.2455C8.50933 11.2525 8.42216 11.2407 8.34052 11.2107C8.25888 11.1808 8.18473 11.1335 8.1232 11.072L5.6 8.54801L1.824 12.324C1.71079 12.4332 1.5592 12.4937 1.40188 12.4922C1.24456 12.4908 1.0941 12.4276 0.982909 12.3163C0.871716 12.205 0.808686 12.0545 0.807393 11.8972C0.806101 11.7398 0.86665 11.5883 0.975999 11.4752L5.176 7.27521C5.2885 7.16285 5.441 7.09973 5.6 7.09973C5.759 7.09973 5.9115 7.16285 6.024 7.27521L8.4832 9.73361C9.71502 8.16488 11.2173 6.82894 12.9192 5.78881L10.4856 5.13681C10.4095 5.11639 10.3381 5.08117 10.2756 5.03317C10.2131 4.98517 10.1607 4.92532 10.1213 4.85704C10.0819 4.78877 10.0564 4.71341 10.0461 4.63526C10.0359 4.55712 10.0411 4.47852 10.0616 4.40241Z" fill="#04839F"/>
</svg>
