<svg width="14" height="12" viewBox="0 0 14 12" fill="none" xmlns="http://www.w3.org/2000/svg">
<path d="M8.3281 11.3669L13.667 6.0002L8.3281 0.633528C8.27989 0.57021 8.21863 0.51799 8.14847 0.480405C8.07832 0.442819 8.00091 0.420746 7.92148 0.415678C7.84206 0.410611 7.76247 0.422668 7.68811 0.451032C7.61375 0.479397 7.54635 0.523408 7.49048 0.580085C7.4346 0.636762 7.39156 0.704783 7.36426 0.779541C7.33696 0.8543 7.32604 0.934052 7.33224 1.0134C7.33845 1.09274 7.36162 1.16983 7.40021 1.23944C7.43879 1.30905 7.49188 1.36955 7.55588 1.41686L11.5503 5.44464L0.922546 5.44464C0.775205 5.44464 0.633897 5.50317 0.529711 5.60736C0.425524 5.71154 0.366991 5.85285 0.366991 6.0002C0.366991 6.14754 0.425524 6.28885 0.529711 6.39303C0.633897 6.49722 0.775205 6.55575 0.922546 6.55575L11.5503 6.55575L7.55588 10.5835C7.452 10.6881 7.39394 10.8297 7.39446 10.9772C7.39498 11.1246 7.45404 11.2658 7.55866 11.3696C7.66327 11.4735 7.80486 11.5316 7.95229 11.5311C8.09971 11.5305 8.24089 11.4715 8.34477 11.3669H8.3281Z" fill="#04839F"/>
</svg>
