<svg width="9" height="16" viewBox="0 0 9 16" fill="none" xmlns="http://www.w3.org/2000/svg">
<path d="M0.724881 8.45258L7.69113 15.0901C7.80737 15.2009 7.96179 15.2627 8.12238 15.2627C8.28297 15.2627 8.4374 15.2009 8.55363 15.0901L8.56113 15.0826C8.61767 15.0289 8.6627 14.9642 8.69347 14.8925C8.72423 14.8209 8.7401 14.7437 8.7401 14.6657C8.7401 14.5877 8.72423 14.5105 8.69347 14.4389C8.6627 14.3672 8.61767 14.3025 8.56113 14.2488L2.00113 7.99883L8.56113 1.75133C8.61767 1.69761 8.6627 1.63295 8.69347 1.56129C8.72423 1.48962 8.7401 1.41244 8.7401 1.33445C8.7401 1.25646 8.72423 1.17928 8.69347 1.10762C8.6627 1.03595 8.61767 0.971292 8.56113 0.917576L8.55363 0.910076C8.4374 0.79927 8.28297 0.737455 8.12238 0.737455C7.96179 0.737455 7.80737 0.79927 7.69113 0.910076L0.724881 7.54758C0.663616 7.60595 0.614842 7.67615 0.581516 7.75393C0.54819 7.83172 0.531006 7.91546 0.531006 8.00008C0.531006 8.0847 0.54819 8.16844 0.581516 8.24622C0.614842 8.324 0.663616 8.3942 0.724881 8.45258Z" fill="#252525"/>
</svg>
