<svg width="24" height="24" viewBox="0 0 24 24" fill="none" xmlns="http://www.w3.org/2000/svg">
<path d="M18.4713 12.235V11.1426H22V12.235H18.4713ZM19.6566 19.2946L16.8326 17.1763L17.5132 16.3111L20.3372 18.4283L19.6566 19.2946ZM17.4291 6.9824L16.7485 6.11716L19.5725 3.99994L20.2531 4.86518L17.4291 6.9824ZM4.89944 18.2022V14.042H3.76544C3.27601 14.042 2.85942 13.8701 2.51565 13.5264C2.17188 13.1826 2 12.766 2 12.2766V11.101C2 10.6116 2.17188 10.195 2.51565 9.85125C2.85942 9.50749 3.27601 9.3356 3.76544 9.3356H7.84039L12.1688 6.77265V16.605L7.84039 14.042H5.99192V18.2022H4.89944ZM11.0763 14.6593V8.71835L8.14847 10.4281H3.76435C3.59611 10.4281 3.44171 10.498 3.30114 10.6378C3.1613 10.7784 3.09139 10.9328 3.09139 11.101V12.2766C3.09139 12.4448 3.1613 12.5992 3.30114 12.7398C3.44171 12.8796 3.59611 12.9495 3.76435 12.9495H8.14628L11.0763 14.6593ZM14.1025 14.845V8.53263C14.4674 8.8713 14.7616 9.3163 14.9852 9.86764C15.2081 10.4183 15.3195 11.0249 15.3195 11.6877C15.3195 12.3505 15.2081 12.9572 14.9852 13.5078C14.7616 14.0591 14.467 14.5041 14.1014 14.8428" fill="#FDFDFD"/>
</svg>
