<svg width="24" height="24" viewBox="0 0 24 24" fill="none" xmlns="http://www.w3.org/2000/svg">
<path d="M17.9229 12.4999V11.4999H21.1529V12.4999H17.9229ZM19.0079 18.9619L16.4229 17.0229L17.0459 16.2309L19.6309 18.1689L19.0079 18.9619ZM16.9689 7.69191L16.3459 6.89991L18.9309 4.96191L19.5539 5.75391L16.9689 7.69191ZM5.49995 17.9619V14.1539H4.46195C4.01395 14.1539 3.63261 13.9966 3.31795 13.6819C3.00328 13.3672 2.84595 12.9859 2.84595 12.5379V11.4619C2.84595 11.0139 3.00328 10.6326 3.31795 10.3179C3.63261 10.0032 4.01395 9.84591 4.46195 9.84591H8.19195L12.1539 7.49991V16.4999L8.19195 14.1539H6.49995V17.9619H5.49995ZM13.9229 14.8879V9.11191C14.2576 9.42191 14.5273 9.82925 14.7319 10.3339C14.9359 10.8379 15.0379 11.3932 15.0379 11.9999C15.0379 12.6066 14.9359 13.1619 14.7319 13.6659C14.5273 14.1706 14.2576 14.5779 13.9229 14.8879Z" fill="#04839F"/>
</svg>
