<svg width="41" height="40" viewBox="0 0 41 40" fill="none" xmlns="http://www.w3.org/2000/svg">
<path d="M4.25 26.25L36.75 26.25C37.4404 26.25 38 25.6904 38 25V7.5C38 6.80964 37.4404 6.25 36.75 6.25L4.25 6.25C3.55964 6.25 3 6.80964 3 7.5V25C3 25.6904 3.55964 26.25 4.25 26.25Z" stroke="black" stroke-width="1.5" stroke-linejoin="round"/>
<path d="M5.5 30H35.5M8 33.75H33" stroke="black" stroke-width="1.5" stroke-linecap="round" stroke-linejoin="round"/>
<path d="M20.5 22.5C23.9518 22.5 26.75 19.7018 26.75 16.25C26.75 12.7982 23.9518 10 20.5 10C17.0482 10 14.25 12.7982 14.25 16.25C14.25 19.7018 17.0482 22.5 20.5 22.5Z" stroke="black" stroke-width="1.5" stroke-linecap="round" stroke-linejoin="round"/>
<path d="M38 12.5C36.3424 12.5 34.7527 11.8415 33.5806 10.6694C32.4085 9.49731 31.75 7.9076 31.75 6.25M3 12.5C3.82076 12.5 4.63349 12.3383 5.39177 12.0242C6.15006 11.7102 6.83905 11.2498 7.41942 10.6694C7.99978 10.0891 8.46016 9.40006 8.77425 8.64177C9.08834 7.88349 9.25 7.07076 9.25 6.25M38 20C36.3424 20 34.7527 20.6585 33.5806 21.8306C32.4085 23.0027 31.75 24.5924 31.75 26.25M3 20C3.82076 20 4.63349 20.1617 5.39177 20.4758C6.15006 20.7898 6.83905 21.2502 7.41942 21.8306C7.99978 22.4109 8.46016 23.0999 8.77425 23.8582C9.08834 24.6165 9.25 25.4292 9.25 26.25" stroke="black" stroke-width="1.5" stroke-linecap="round" stroke-linejoin="round"/>
</svg>
