<svg width="40" height="40" viewBox="0 0 40 40" fill="none" xmlns="http://www.w3.org/2000/svg">
<path d="M22.8866 36.2833L23.7899 34.7567L21.6399 33.4833L20.7349 35.01L22.8866 36.2833ZM16.2099 34.7567L17.1133 36.2833L19.2633 35.01L18.3616 33.4833L16.2099 34.7567ZM20.7349 35.01C20.657 35.1347 20.5487 35.2375 20.4201 35.3088C20.2915 35.38 20.1469 35.4174 19.9999 35.4174C19.8529 35.4174 19.7083 35.38 19.5797 35.3088C19.4512 35.2375 19.3428 35.1347 19.2649 35.01L17.1133 36.2833C18.4016 38.4617 21.5966 38.4617 22.8866 36.2833L20.7349 35.01ZM17.4999 4.58334H22.4999V2.08334H17.4999V4.58334ZM35.4166 17.5V19.1667H37.9166V17.5H35.4166ZM4.58325 19.1667V17.5H2.08325V19.1667H4.58325ZM2.08325 19.1667C2.08325 21.0917 2.08325 22.5967 2.16659 23.8117C2.24992 25.0367 2.42159 26.0567 2.81325 27L5.12325 26.0433C4.87825 25.4567 4.73492 24.74 4.65992 23.6417C4.58325 22.5317 4.58325 21.125 4.58325 19.1667H2.08325ZM13.0049 30.4033C10.9116 30.3667 9.81492 30.2333 8.95492 29.8767L7.99992 32.1867C9.34159 32.7433 10.8683 32.8683 12.9616 32.905L13.0049 30.4033ZM2.81325 27C3.29486 28.1628 4.00079 29.2193 4.89072 30.1092C5.78065 30.9991 6.83716 31.7051 7.99992 32.1867L8.95492 29.8767C7.21938 29.1578 5.84216 27.7789 5.12325 26.0433L2.81325 27ZM35.4166 19.1667C35.4166 21.125 35.4166 22.5317 35.3399 23.6417C35.2649 24.74 35.1216 25.4567 34.8783 26.0433L37.1866 27C37.5783 26.0567 37.7499 25.0367 37.8349 23.8117C37.9183 22.5967 37.9166 21.0917 37.9166 19.1667H35.4166ZM27.0382 32.9017C29.1316 32.8667 30.6583 32.7433 31.9999 32.1867L31.0433 29.8767C30.1849 30.2333 29.0883 30.3667 26.9966 30.4033L27.0382 32.9017ZM34.8783 26.0433C34.1593 27.7789 32.7805 29.1578 31.0449 29.8767L31.9999 32.1867C33.1627 31.7051 34.2192 30.9991 35.1091 30.1092C35.9991 29.2193 36.705 28.1628 37.1866 27L34.8783 26.0433ZM22.4999 4.58334C25.2516 4.58334 27.2283 4.58334 28.7699 4.73167C30.2932 4.87667 31.2616 5.15334 32.0349 5.62667L33.3399 3.495C32.1083 2.74167 30.7116 2.405 29.0066 2.24167C27.3199 2.08167 25.2033 2.08334 22.4999 2.08334V4.58334ZM37.9166 17.5C37.9166 14.7967 37.9166 12.6817 37.7566 10.9933C37.5949 9.28834 37.2583 7.89 36.5049 6.66L34.3716 7.965C34.8466 8.73834 35.1232 9.70667 35.2682 11.2317C35.4149 12.7717 35.4166 14.7483 35.4166 17.5H37.9166ZM32.0333 5.62667C32.9869 6.2105 33.7887 7.01179 34.3733 7.965L36.5049 6.66C35.7145 5.36997 34.63 4.28539 33.3399 3.495L32.0333 5.62667ZM17.4999 2.08334C14.7966 2.08334 12.6816 2.08334 10.9933 2.24167C9.28825 2.405 7.88992 2.74167 6.65992 3.495L7.96492 5.62834C8.73825 5.15334 9.70658 4.87667 11.2316 4.73167C12.7716 4.585 14.7483 4.58334 17.4999 4.58334V2.08334ZM4.58325 17.5C4.58325 14.7483 4.58325 12.7717 4.73159 11.23C4.87659 9.70667 5.15325 8.73834 5.62659 7.965L3.49492 6.66167C2.74159 7.89167 2.40492 9.28834 2.24159 10.9933C2.08325 12.6833 2.08325 14.7967 2.08325 17.5H4.58325ZM6.65992 3.495C5.36988 4.28539 4.2853 5.37163 3.49492 6.66167L5.62825 7.965C6.21181 7.01217 7.01251 6.21091 7.96492 5.62667L6.65992 3.495ZM18.3599 33.4833C18.0233 32.9117 17.7266 32.4067 17.4366 32.01C17.1383 31.575 16.7508 31.2086 16.2999 30.935L15.0433 33.0967C15.1216 33.1433 15.2299 33.2267 15.4166 33.4833C15.6183 33.76 15.8466 34.1433 16.2099 34.7567L18.3599 33.4833ZM12.9616 32.9017C13.6949 32.915 14.1566 32.925 14.5099 32.9633C14.8399 33 14.9683 33.0533 15.0433 33.0967L16.2999 30.935C15.8333 30.6765 15.3167 30.5208 14.7849 30.4783C14.2883 30.4233 13.6916 30.415 13.0049 30.4033L12.9616 32.9017ZM23.7899 34.7567C24.1533 34.145 24.3816 33.76 24.5833 33.4833C24.7699 33.2267 24.8783 33.1433 24.9566 33.0967L23.6999 30.935C23.2166 31.2183 22.8666 31.5933 22.5633 32.01C22.2749 32.4067 21.9766 32.91 21.6383 33.4833L23.7899 34.7567ZM26.9966 30.4033C26.3099 30.415 25.7116 30.4233 25.2149 30.4783C24.6966 30.5367 24.1883 30.6517 23.6999 30.935L24.9566 33.0967C25.0316 33.0533 25.1599 33 25.4899 32.9633C25.8433 32.925 26.3066 32.9133 27.0399 32.9017L26.9966 30.4033Z" fill="#FDFDFD"/>
<path d="M13.3333 15H26.6666M13.3333 20.8333H22.4999" stroke="#FDFDFD" stroke-width="1.5" stroke-linecap="round"/>
</svg>
