<svg width="24" height="24" viewBox="0 0 24 24" fill="none" xmlns="http://www.w3.org/2000/svg">
<circle cx="12" cy="12" r="12" fill="#7FB519"/>
<circle cx="11.9992" cy="12.0002" r="7.8" fill="white"/>
<path d="M12 4C7.592 4 4 7.592 4 12C4 16.408 7.592 20 12 20C16.408 20 20 16.408 20 12C20 7.592 16.408 4 12 4ZM15.824 10.16L11.288 14.696C11.176 14.808 11.024 14.872 10.864 14.872C10.704 14.872 10.552 14.808 10.44 14.696L8.176 12.432C7.944 12.2 7.944 11.816 8.176 11.584C8.408 11.352 8.792 11.352 9.024 11.584L10.864 13.424L14.976 9.312C15.208 9.08 15.592 9.08 15.824 9.312C16.056 9.544 16.056 9.92 15.824 10.16Z" fill="#659711"/>
</svg>
