<svg width="24" height="24" viewBox="0 0 24 24" fill="none" xmlns="http://www.w3.org/2000/svg">
<g clip-path="url(#clip0_2033_9301)">
<path d="M17.6938 12.0001C17.6909 11.1036 17.5949 10.21 17.4072 9.3334H19.8072C19.6842 8.96753 19.5349 8.61105 19.3605 8.26673H17.1272C16.7076 6.86401 16.0564 5.54133 15.2005 4.3534C14.6538 4.12353 14.0838 3.95365 13.5005 3.84673C14.6732 5.10584 15.5581 6.60492 16.0938 8.24007H12.5005V3.7334H11.5005V8.24673H7.90716C8.44396 6.60863 9.3312 5.10714 10.5072 3.84673C9.92637 3.95197 9.35863 4.11961 8.81383 4.34673C7.95458 5.52968 7.2989 6.84781 6.87383 8.24673H4.62716C4.44956 8.59733 4.29804 8.96053 4.17383 9.3334H6.59383C6.40612 10.21 6.31004 11.1036 6.30716 12.0001C6.30917 12.9806 6.42098 13.9578 6.64049 14.9134H4.28049C4.41765 15.2874 4.58256 15.6506 4.77383 16.0001H6.92716C7.3351 17.2773 7.94018 18.483 8.72049 19.5734C9.27918 19.8129 9.86277 19.9895 10.4605 20.1001C9.37229 18.9134 8.5355 17.5187 8.00049 16.0001H11.5072V20.2267H12.5072V16.0001H16.0005C15.4635 17.5192 14.6244 18.9139 13.5338 20.1001C14.1344 19.9857 14.7202 19.8046 15.2805 19.5601C16.0596 18.4738 16.6646 17.2727 17.0738 16.0001H19.2072C19.3975 15.6571 19.5624 15.3006 19.7005 14.9334H17.3338C17.5638 13.9723 17.6846 12.9883 17.6938 12.0001ZM11.5005 14.9134H7.67383C7.20474 13.0786 7.18416 11.1578 7.61383 9.3134H11.5005V14.9134ZM16.3272 14.9134H12.5005V9.3334H16.3872C16.5787 10.2092 16.6726 11.1036 16.6672 12.0001C16.6734 12.9814 16.5592 13.9598 16.3272 14.9134Z" fill="#04839F"/>
<path d="M12.0007 1.33325C9.89099 1.33325 7.8287 1.95884 6.07457 3.13091C4.32045 4.30298 2.95328 5.96888 2.14594 7.91796C1.33861 9.86704 1.12737 12.0118 1.53895 14.0809C1.95052 16.15 2.96642 18.0506 4.45818 19.5424C5.94994 21.0342 7.85056 22.0501 9.91969 22.4616C11.9888 22.8732 14.1335 22.662 16.0826 21.8546C18.0317 21.0473 19.6976 19.6801 20.8697 17.926C22.0417 16.1719 22.6673 14.1096 22.6673 11.9999C22.6673 9.17094 21.5435 6.45783 19.5431 4.45745C17.5427 2.45706 14.8296 1.33325 12.0007 1.33325ZM12.0007 21.3333C10.1547 21.3333 8.35019 20.7859 6.81533 19.7603C5.28048 18.7347 4.0842 17.2771 3.37778 15.5716C2.67136 13.8662 2.48653 11.9896 2.84666 10.1791C3.20679 8.36859 4.0957 6.70555 5.40099 5.40026C6.70628 4.09497 8.36932 3.20605 10.1798 2.84592C11.9903 2.48579 13.8669 2.67063 15.5724 3.37704C17.2778 4.08346 18.7355 5.27974 19.761 6.8146C20.7866 8.34945 21.334 10.154 21.334 11.9999C21.334 14.4753 20.3507 16.8492 18.6003 18.5996C16.85 20.3499 14.476 21.3333 12.0007 21.3333Z" fill="#04839F"/>
</g>
<defs>
<clipPath id="clip0_2033_9301">
<rect width="24" height="24" fill="white"/>
</clipPath>
</defs>
</svg>
