<svg width="41" height="40" viewBox="0 0 41 40" fill="none" xmlns="http://www.w3.org/2000/svg">
<path d="M12.0333 11.5933L9.58333 9.12167M25.0983 11.5933L27.5483 9.12167M9.58167 27.255L12.0317 24.7817M18.565 8.29833V5M8.765 18.1883H5.5M28.625 28.06L34.9817 25.55C35.135 25.4886 35.2665 25.3827 35.3591 25.2459C35.4517 25.1091 35.5012 24.9477 35.5012 24.7825C35.5012 24.6173 35.4517 24.4559 35.3591 24.3191C35.2665 24.1823 35.135 24.0764 34.9817 24.015L19.7067 17.99C19.558 17.9325 19.3957 17.9195 19.2398 17.9528C19.0838 17.986 18.9409 18.064 18.8286 18.1772C18.7163 18.2904 18.6394 18.4339 18.6074 18.5901C18.5754 18.7463 18.5896 18.9084 18.6483 19.0567L24.6183 34.475C24.8883 35.175 25.8683 35.175 26.1383 34.475L28.625 28.06Z" stroke="black" stroke-width="1.5" stroke-linecap="round" stroke-linejoin="round"/>
</svg>
