<svg width="16" height="17" viewBox="0 0 16 17" fill="none" xmlns="http://www.w3.org/2000/svg">
<path d="M8.36245 11.12L13.6725 5.54705C13.7611 5.45406 13.8105 5.33052 13.8105 5.20205C13.8105 5.07358 13.7611 4.95003 13.6725 4.85705L13.6665 4.85105C13.6235 4.80581 13.5718 4.76979 13.5144 4.74518C13.4571 4.72056 13.3953 4.70787 13.333 4.70787C13.2706 4.70787 13.2088 4.72056 13.1515 4.74518C13.0942 4.76979 13.0424 4.80581 12.9995 4.85105L7.99945 10.099L3.00145 4.85105C2.95848 4.80581 2.90675 4.76979 2.84942 4.74518C2.79209 4.72056 2.73035 4.70787 2.66795 4.70787C2.60556 4.70787 2.54382 4.72056 2.48649 4.74518C2.42915 4.76979 2.37743 4.80581 2.33445 4.85105L2.32845 4.85705C2.23981 4.95003 2.19036 5.07358 2.19036 5.20205C2.19036 5.33052 2.23981 5.45406 2.32845 5.54705L7.63845 11.12C7.68515 11.1691 7.74131 11.2081 7.80354 11.2347C7.86576 11.2614 7.93276 11.2751 8.00045 11.2751C8.06815 11.2751 8.13514 11.2614 8.19737 11.2347C8.25959 11.2081 8.31575 11.1691 8.36245 11.12Z" fill="#252525"/>
</svg>
