<svg width="20" height="20" viewBox="0 0 20 20" fill="none" xmlns="http://www.w3.org/2000/svg">
<path fill-rule="evenodd" clip-rule="evenodd" d="M17.8786 4.51327C17.9578 4.63344 17.993 4.77726 17.9785 4.92043C17.9639 5.0636 17.9004 5.19735 17.7986 5.29911L10.1378 12.9591C10.0594 13.0374 9.9616 13.0935 9.85442 13.1216L6.66359 13.9549C6.55812 13.9824 6.44728 13.9819 6.34208 13.9533C6.23689 13.9248 6.14099 13.8692 6.06392 13.7921C5.98684 13.715 5.93126 13.6191 5.9027 13.5139C5.87414 13.4087 5.87358 13.2979 5.90109 13.1924L6.73442 10.0024C6.75875 9.90668 6.80464 9.81775 6.86859 9.74244L14.5578 2.05827C14.6749 1.94123 14.8338 1.87549 14.9994 1.87549C15.165 1.87549 15.3239 1.94123 15.4411 2.05827L17.7986 4.41494C17.8285 4.44494 17.8553 4.47789 17.8786 4.51327ZM16.4728 4.85661L14.9994 3.3841L7.90109 10.4824L7.38026 12.4766L9.37442 11.9558L16.4728 4.85661Z" fill="#404040"/>
<path d="M16.3667 14.3C16.5944 12.3533 16.6672 10.3915 16.5842 8.43332C16.5823 8.38719 16.5901 8.34117 16.6068 8.29816C16.6236 8.25514 16.6491 8.21605 16.6817 8.18332L17.5017 7.36332C17.5241 7.34079 17.5525 7.3252 17.5835 7.31844C17.6146 7.31168 17.6469 7.31403 17.6767 7.32521C17.7064 7.33638 17.7323 7.35591 17.7512 7.38145C17.7702 7.40698 17.7813 7.43744 17.7833 7.46915C17.9377 9.79518 17.8791 12.1305 17.6083 14.4458C17.4117 16.1308 16.0583 17.4517 14.3808 17.6392C11.4686 17.9617 8.52969 17.9617 5.61748 17.6392C3.94082 17.4517 2.58665 16.1308 2.38998 14.4458C2.04448 11.492 2.04448 8.50797 2.38998 5.55415C2.58665 3.86915 3.93998 2.54832 5.61748 2.36082C7.82779 2.11572 10.0548 2.05635 12.275 2.18332C12.3068 2.1856 12.3372 2.19694 12.3627 2.216C12.3883 2.23505 12.4078 2.26102 12.419 2.29084C12.4303 2.32065 12.4327 2.35306 12.4261 2.38422C12.4194 2.41538 12.404 2.44398 12.3817 2.46665L11.5542 3.29332C11.5217 3.32561 11.4831 3.35092 11.4405 3.36769C11.3979 3.38446 11.3524 3.39233 11.3067 3.39082C9.45395 3.32784 7.59911 3.39886 5.75665 3.60332C5.21827 3.66291 4.71569 3.90226 4.33011 4.2827C3.94453 4.66314 3.69846 5.16245 3.63165 5.69999C3.29752 8.55692 3.29752 11.4431 3.63165 14.3C3.69846 14.8375 3.94453 15.3368 4.33011 15.7173C4.71569 16.0977 5.21827 16.3371 5.75665 16.3967C8.55248 16.7092 11.4458 16.7092 14.2425 16.3967C14.7809 16.3371 15.2834 16.0977 15.669 15.7173C16.0546 15.3368 16.2998 14.8375 16.3667 14.3Z" fill="#404040"/>
</svg>
