<svg width="20" height="20" viewBox="0 0 20 20" fill="none" xmlns="http://www.w3.org/2000/svg">
<path fill-rule="evenodd" clip-rule="evenodd" d="M17.8791 4.51327C17.9583 4.63344 17.9935 4.77726 17.979 4.92043C17.9644 5.0636 17.9008 5.19735 17.7991 5.29911L10.1382 12.9591C10.0599 13.0374 9.96209 13.0935 9.85491 13.1216L6.66408 13.9549C6.5586 13.9824 6.44777 13.9819 6.34257 13.9533C6.23738 13.9248 6.14148 13.8692 6.06441 13.7921C5.98733 13.715 5.93175 13.6191 5.90319 13.5139C5.87462 13.4087 5.87407 13.2979 5.90158 13.1924L6.73491 10.0024C6.75924 9.90668 6.80513 9.81775 6.86908 9.74244L14.5582 2.05827C14.6754 1.94123 14.8343 1.87549 14.9999 1.87549C15.1655 1.87549 15.3244 1.94123 15.4416 2.05827L17.7991 4.41494C17.829 4.44494 17.8558 4.47789 17.8791 4.51327ZM16.4732 4.85661L14.9999 3.3841L7.90158 10.4824L7.38075 12.4766L9.37491 11.9558L16.4732 4.85661Z" fill="#04839F"/>
<path d="M16.3676 14.3C16.5954 12.3533 16.6681 10.3915 16.5851 8.43332C16.5833 8.38719 16.591 8.34117 16.6078 8.29816C16.6246 8.25514 16.6501 8.21605 16.6826 8.18332L17.5026 7.36332C17.525 7.34079 17.5535 7.3252 17.5845 7.31844C17.6156 7.31168 17.6479 7.31403 17.6777 7.32521C17.7074 7.33638 17.7333 7.35591 17.7522 7.38145C17.7711 7.40698 17.7823 7.43744 17.7843 7.46915C17.9386 9.79518 17.8801 12.1305 17.6093 14.4458C17.4126 16.1308 16.0593 17.4517 14.3818 17.6392C11.4696 17.9617 8.53067 17.9617 5.61846 17.6392C3.94179 17.4517 2.58763 16.1308 2.39096 14.4458C2.04546 11.492 2.04546 8.50797 2.39096 5.55415C2.58763 3.86915 3.94096 2.54832 5.61846 2.36082C7.82877 2.11572 10.0557 2.05635 12.276 2.18332C12.3077 2.1856 12.3382 2.19694 12.3637 2.216C12.3892 2.23505 12.4088 2.26102 12.42 2.29084C12.4312 2.32065 12.4337 2.35306 12.427 2.38422C12.4204 2.41538 12.405 2.44398 12.3826 2.46665L11.5551 3.29332C11.5227 3.32561 11.484 3.35092 11.4415 3.36769C11.3989 3.38446 11.3534 3.39233 11.3076 3.39082C9.45492 3.32784 7.60009 3.39886 5.75763 3.60332C5.21924 3.66291 4.71667 3.90226 4.33109 4.2827C3.94551 4.66314 3.69944 5.16245 3.63263 5.69999C3.2985 8.55692 3.2985 11.4431 3.63263 14.3C3.69944 14.8375 3.94551 15.3368 4.33109 15.7173C4.71667 16.0977 5.21924 16.3371 5.75763 16.3967C8.55346 16.7092 11.4468 16.7092 14.2435 16.3967C14.7818 16.3371 15.2844 16.0977 15.67 15.7173C16.0556 15.3368 16.3008 14.8375 16.3676 14.3Z" fill="#04839F"/>
</svg>
