<svg width="20" height="20" viewBox="0 0 20 20" fill="none" xmlns="http://www.w3.org/2000/svg">
<path d="M9.10264 3.48332C9.46948 2.74015 10.5292 2.74015 10.8961 3.48332L12.3419 6.41244C12.4874 6.70729 12.7686 6.91175 13.094 6.95931L16.3289 7.43214C17.1488 7.55198 17.4756 8.55982 16.882 9.13798L14.5428 11.4164C14.3069 11.6461 14.1993 11.9772 14.2549 12.3018L14.8068 15.5193C14.9469 16.3363 14.0893 16.9592 13.3557 16.5734L10.4648 15.0531C10.1734 14.8999 9.82528 14.8999 9.5339 15.0531L6.64298 16.5734C5.90935 16.9592 5.0518 16.3363 5.19192 15.5193L5.74377 12.3018C5.79943 11.9772 5.69177 11.6461 5.45589 11.4164L3.1167 9.13798C2.5231 8.55982 2.84988 7.55198 3.6698 7.43214L6.90472 6.95931C7.23007 6.91175 7.51125 6.70729 7.65679 6.41244L9.10264 3.48332Z" fill="#FFB800"/>
</svg>
