<svg width="40" height="56" viewBox="0 0 40 56" fill="none" xmlns="http://www.w3.org/2000/svg">
<g clip-path="url(#clip0_53_5827)">
<path d="M11.0337 41.4834C12.6913 43.5474 14.1999 45.7215 15.5486 47.9901C16.7002 50.1236 17.1803 51.5703 18.0219 54.141C18.538 55.5613 19.0045 55.9852 20.0074 55.9852C21.1002 55.9852 21.5961 55.264 21.9792 54.1488C22.7747 51.7211 23.3989 49.8683 24.3837 48.1177C26.3161 44.7378 28.7173 41.7344 31.0767 38.8479C31.7154 38.031 35.8451 33.2716 37.7043 29.5162C37.7043 29.5162 39.9893 25.391 39.9893 19.6297C39.9893 14.2406 37.7358 10.5029 37.7358 10.5029L31.2478 12.2006L27.3077 22.3403L26.3329 23.7385L26.138 23.9918L25.8788 24.3088L25.4237 24.8153L24.7735 25.4505L21.2648 28.2435L12.4929 33.1922L11.0337 41.4834Z" fill="#34A853"/>
<path d="M1.97998 28.8227C4.12088 33.6007 8.24932 37.8009 11.0425 41.4868L25.8786 24.3154C25.8786 24.3154 23.7884 26.9863 19.997 26.9863C15.7738 26.9863 12.362 23.6912 12.362 19.5362C12.362 16.6869 14.1164 14.7295 14.1164 14.7295L4.04529 17.3662L1.97998 28.8227Z" fill="#FBBC04"/>
<path d="M26.0444 0.883057C30.9718 2.43534 35.1892 5.69417 37.7402 10.4996L25.8832 24.3056C25.8832 24.3056 27.6376 22.3127 27.6376 19.4812C27.6376 15.2294 23.9734 12.0531 20.015 12.0531C16.2719 12.0531 14.1221 14.7196 14.1221 14.7196V6.02209L26.0444 0.883057Z" fill="#4285F4"/>
<path d="M4.69775 6.98322C7.64073 3.5428 12.8192 0 19.9586 0C23.4224 0 26.0319 0.888523 26.0319 0.888523L14.1107 14.7272H5.66443L4.69775 6.98322Z" fill="#1A73E8"/>
<path d="M1.97984 28.8227C1.97984 28.8227 0.0102539 25.0541 0.0102539 19.5944C0.0102539 14.4344 2.06323 9.92384 4.69762 6.98315L14.1173 14.7284L1.97984 28.8227Z" fill="#EA4335"/>
</g>
<defs>
<clipPath id="clip0_53_5827">
<rect width="40" height="56" fill="white"/>
</clipPath>
</defs>
</svg>
