<svg width="56" height="56" viewBox="0 0 56 56" fill="none" xmlns="http://www.w3.org/2000/svg">
<path d="M52.5024 28.544C52.5024 26.5296 52.3356 25.0596 51.9746 23.5352H28.5024V32.6273H42.2801C42.0024 34.8868 40.5024 38.2896 37.169 40.5761L37.1223 40.8805L44.5438 46.5149L45.058 46.5652C49.7801 42.2912 52.5024 36.0029 52.5024 28.544Z" fill="#4285F4"/>
<path d="M28.4993 52.5001C35.2492 52.5001 40.9158 50.3222 45.0548 46.5656L37.1659 40.5765C35.0548 42.0193 32.2214 43.0265 28.4993 43.0265C21.8883 43.0265 16.2772 38.7527 14.2771 32.8455L13.9839 32.8699L6.26693 38.7227L6.16602 38.9976C10.2771 47.001 18.7215 52.5001 28.4993 52.5001Z" fill="#34A853"/>
<path d="M14.2811 32.8457C13.7533 31.3213 13.4479 29.6878 13.4479 28.0001C13.4479 26.3122 13.7533 24.679 14.2533 23.1545L14.2393 22.8299L6.42567 16.8831L6.17002 17.0022C4.47565 20.3234 3.50342 24.0529 3.50342 28.0001C3.50342 31.9473 4.47565 35.6766 6.17002 38.9978L14.2811 32.8457Z" fill="#FBBC05"/>
<path d="M28.4995 12.9733C33.1938 12.9733 36.3604 14.9605 38.1661 16.6211L45.2216 9.87C40.8884 5.92279 35.2494 3.5 28.4995 3.5C18.7216 3.5 10.2771 8.99885 6.16602 17.0021L14.2493 23.1544C16.2773 17.2472 21.8884 12.9733 28.4995 12.9733Z" fill="#EB4335"/>
</svg>
