<svg width="28" height="28" viewBox="0 0 28 28" fill="none" xmlns="http://www.w3.org/2000/svg">
<path d="M20.9101 14.5833V13.4167H24.6785V14.5833H20.9101ZM22.176 22.1223L19.1601 19.8602L19.887 18.9362L22.9028 21.1972L22.176 22.1223ZM19.7971 8.974L19.0703 8.05L22.0861 5.789L22.813 6.713L19.7971 8.974ZM6.41665 20.9557V16.513H5.20565C4.68298 16.513 4.23809 16.3294 3.87098 15.9623C3.50387 15.5952 3.32031 15.1503 3.32031 14.6277V13.3723C3.32031 12.8497 3.50387 12.4048 3.87098 12.0377C4.23809 11.6706 4.68298 11.487 5.20565 11.487H9.55731L14.1796 8.75V19.25L9.55731 16.513H7.58331V20.9557H6.41665ZM16.2435 17.3693V10.6307C16.6339 10.9923 16.9485 11.4676 17.1873 12.0563C17.4253 12.6443 17.5443 13.2922 17.5443 14C17.5443 14.7078 17.4253 15.3557 17.1873 15.9437C16.9485 16.5324 16.6339 17.0077 16.2435 17.3693Z" fill="url(#paint0_linear_22_1052)"/>
<defs>
<linearGradient id="paint0_linear_22_1052" x1="4.33482" y1="5.789" x2="18.4341" y2="25.492" gradientUnits="userSpaceOnUse">
<stop stop-color="#05A4C7"/>
<stop offset="1" stop-color="#1ADBD4"/>
</linearGradient>
</defs>
</svg>
