<svg width="24" height="24" viewBox="0 0 24 24" fill="none" xmlns="http://www.w3.org/2000/svg">
<path fill-rule="evenodd" clip-rule="evenodd" d="M11.166 20.748C11.3298 20.8587 11.5138 20.9359 11.7075 20.9752C11.9012 21.0145 12.1007 21.0151 12.2947 20.977C12.4886 20.939 12.6731 20.863 12.8376 20.7534C13.0021 20.6438 13.1433 20.5027 13.2531 20.3384C13.3629 20.174 13.4391 19.9896 13.4774 19.7957C13.5157 19.6018 13.5153 19.4023 13.4762 19.2085C13.4371 19.0148 13.3601 18.8307 13.2496 18.6668C13.1392 18.5029 12.9974 18.3624 12.8325 18.2535C12.5019 18.0503 12.1054 17.983 11.7263 18.066C11.3473 18.1489 11.015 18.3755 10.7995 18.6982C10.584 19.0209 10.5019 19.4146 10.5705 19.7966C10.6392 20.1785 10.8531 20.519 11.1675 20.7465L11.166 20.748ZM12 13.5C11.6022 13.5 11.2206 13.342 10.9393 13.0607C10.658 12.7794 10.5 12.3978 10.5 12C10.5 11.6022 10.658 11.2206 10.9393 10.9393C11.2206 10.658 11.6022 10.5 12 10.5C12.3978 10.5 12.7794 10.658 13.0607 10.9393C13.342 11.2206 13.5 11.6022 13.5 12C13.5 12.3978 13.342 12.7794 13.0607 13.0607C12.7794 13.342 12.3978 13.5 12 13.5ZM12 6C11.6022 6 11.2206 5.84196 10.9393 5.56066C10.658 5.27936 10.5 4.89782 10.5 4.5C10.5 4.10218 10.658 3.72064 10.9393 3.43934C11.2206 3.15804 11.6022 3 12 3C12.3978 3 12.7794 3.15804 13.0607 3.43934C13.342 3.72064 13.5 4.10218 13.5 4.5C13.5 4.89782 13.342 5.27936 13.0607 5.56066C12.7794 5.84196 12.3978 6 12 6Z" fill="#737373"/>
</svg>
