<svg width="16" height="17" viewBox="0 0 16 17" fill="none" xmlns="http://www.w3.org/2000/svg">
<path d="M7.99923 3.83325C4.3699 3.83325 2.35323 6.65592 1.63656 7.91059C1.48923 8.16792 1.4159 8.29725 1.42323 8.48925C1.4319 8.68125 1.51856 8.80659 1.69123 9.05725C2.54456 10.2959 4.8619 13.1666 7.99923 13.1666C11.1366 13.1666 13.4539 10.2959 14.3072 9.05725C14.4806 8.80659 14.5672 8.68125 14.5746 8.48925C14.5826 8.29725 14.5092 8.16792 14.3619 7.91059C13.6459 6.65592 11.6286 3.83325 7.99923 3.83325Z" stroke="black" stroke-width="0.75"/>
<path d="M7.99957 10.5C9.10414 10.5 9.99957 9.60457 9.99957 8.5C9.99957 7.39543 9.10414 6.5 7.99957 6.5C6.895 6.5 5.99957 7.39543 5.99957 8.5C5.99957 9.60457 6.895 10.5 7.99957 10.5Z" stroke="black" stroke-width="0.75"/>
</svg>
