<svg width="16" height="17" viewBox="0 0 16 17" fill="none" xmlns="http://www.w3.org/2000/svg">
<path d="M14.3258 10.8126C14.3755 10.899 14.3889 11.0016 14.363 11.0978C14.3371 11.194 14.274 11.276 14.1876 11.3258C14.1013 11.3755 13.9987 11.3889 13.9025 11.363C13.8062 11.3371 13.7242 11.274 13.6745 11.1876L12.4245 8.99514C11.6853 9.51333 10.86 9.89615 9.98701 10.1258L10.3726 12.4383C10.3808 12.4869 10.3793 12.5366 10.3682 12.5846C10.3571 12.6326 10.3367 12.6779 10.3081 12.7181C10.2795 12.7582 10.2432 12.7922 10.2014 12.8183C10.1596 12.8444 10.1131 12.862 10.0645 12.8701C10.0438 12.8733 10.0229 12.875 10.002 12.8751C9.91346 12.8751 9.8278 12.8436 9.76019 12.7864C9.69258 12.7292 9.6474 12.65 9.63264 12.5626L9.25014 10.2776C8.42189 10.4078 7.57839 10.4078 6.75014 10.2776L6.37014 12.5626C6.35536 12.6501 6.31009 12.7294 6.24235 12.7866C6.17462 12.8438 6.0888 12.8752 6.00014 12.8751C5.97921 12.875 5.95832 12.8733 5.93764 12.8701C5.88904 12.862 5.84252 12.8443 5.80076 12.8181C5.75899 12.7919 5.72279 12.7578 5.69423 12.7176C5.66568 12.6775 5.64531 12.6321 5.63432 12.584C5.62332 12.536 5.6219 12.4862 5.63014 12.4376L6.01577 10.1251C5.14274 9.89553 4.31743 9.51271 3.57827 8.99452L2.32577 11.1876C2.27604 11.274 2.19404 11.3371 2.09781 11.363C2.00158 11.3889 1.899 11.3755 1.81264 11.3258C1.72628 11.276 1.66321 11.194 1.63731 11.0978C1.6114 11.0016 1.62479 10.899 1.67452 10.8126L2.97764 8.53264C2.51404 8.14145 2.08898 7.70676 1.70827 7.23452C1.64577 7.15711 1.61659 7.05804 1.62714 6.95912C1.63769 6.86019 1.68711 6.76951 1.76452 6.70702C1.84193 6.64453 1.94099 6.61535 2.03992 6.6259C2.13884 6.63644 2.22952 6.68586 2.29202 6.76327C3.34639 8.06952 5.19202 9.62514 8.00014 9.62514C10.8083 9.62514 12.6539 8.06952 13.7083 6.76452C13.7708 6.68711 13.8614 6.63769 13.9604 6.62715C14.0593 6.6166 14.1584 6.64578 14.2358 6.70827C14.3132 6.77076 14.3626 6.86144 14.3731 6.96037C14.3837 7.05929 14.3545 7.15836 14.292 7.23577C13.9113 7.70801 13.4862 8.1427 13.0226 8.53389L14.3258 10.8126Z" fill="black"/>
</svg>
