<svg width="20" height="20" viewBox="0 0 20 20" fill="none" xmlns="http://www.w3.org/2000/svg">
<path d="M18.625 0.625H1.375C0.960156 0.625 0.625 0.960156 0.625 1.375V18.625C0.625 19.0398 0.960156 19.375 1.375 19.375H18.625C19.0398 19.375 19.375 19.0398 19.375 18.625V1.375C19.375 0.960156 19.0398 0.625 18.625 0.625ZM6.625 15.4375C6.625 15.5406 6.54063 15.625 6.4375 15.625H4.5625C4.45937 15.625 4.375 15.5406 4.375 15.4375V4.5625C4.375 4.45937 4.45937 4.375 4.5625 4.375H6.4375C6.54063 4.375 6.625 4.45937 6.625 4.5625V15.4375ZM11.125 8.875C11.125 8.97812 11.0406 9.0625 10.9375 9.0625H9.0625C8.95938 9.0625 8.875 8.97812 8.875 8.875V4.5625C8.875 4.45937 8.95938 4.375 9.0625 4.375H10.9375C11.0406 4.375 11.125 4.45937 11.125 4.5625V8.875ZM15.625 10.5625C15.625 10.6656 15.5406 10.75 15.4375 10.75H13.5625C13.4594 10.75 13.375 10.6656 13.375 10.5625V4.5625C13.375 4.45937 13.4594 4.375 13.5625 4.375H15.4375C15.5406 4.375 15.625 4.45937 15.625 4.5625V10.5625Z" fill="#04839F"/>
</svg>
