<svg width="20" height="20" viewBox="0 0 20 20" fill="none" xmlns="http://www.w3.org/2000/svg">
<path d="M4.5625 15.625H6.4375C6.54063 15.625 6.625 15.5406 6.625 15.4375V4.5625C6.625 4.45937 6.54063 4.375 6.4375 4.375H4.5625C4.45937 4.375 4.375 4.45937 4.375 4.5625V15.4375C4.375 15.5406 4.45937 15.625 4.5625 15.625ZM9.0625 9.0625H10.9375C11.0406 9.0625 11.125 8.97812 11.125 8.875V4.5625C11.125 4.45937 11.0406 4.375 10.9375 4.375H9.0625C8.95938 4.375 8.875 4.45937 8.875 4.5625V8.875C8.875 8.97812 8.95938 9.0625 9.0625 9.0625ZM13.5625 10.75H15.4375C15.5406 10.75 15.625 10.6656 15.625 10.5625V4.5625C15.625 4.45937 15.5406 4.375 15.4375 4.375H13.5625C13.4594 4.375 13.375 4.45937 13.375 4.5625V10.5625C13.375 10.6656 13.4594 10.75 13.5625 10.75ZM18.625 0.625H1.375C0.960156 0.625 0.625 0.960156 0.625 1.375V18.625C0.625 19.0398 0.960156 19.375 1.375 19.375H18.625C19.0398 19.375 19.375 19.0398 19.375 18.625V1.375C19.375 0.960156 19.0398 0.625 18.625 0.625ZM17.6875 17.6875H2.3125V2.3125H17.6875V17.6875Z" fill="#FDFDFD"/>
</svg>
