<svg width="12" height="12" viewBox="0 0 12 12" fill="none" xmlns="http://www.w3.org/2000/svg">
<path d="M6.65625 8.84375C6.65625 8.97354 6.61776 9.10042 6.54565 9.20834C6.47354 9.31626 6.37105 9.40038 6.25114 9.45004C6.13122 9.49971 5.99927 9.51271 5.87197 9.48739C5.74467 9.46207 5.62774 9.39957 5.53596 9.30779C5.44419 9.21601 5.38168 9.09908 5.35636 8.97178C5.33104 8.84448 5.34404 8.71253 5.39371 8.59261C5.44338 8.4727 5.52749 8.37021 5.63541 8.2981C5.74333 8.22599 5.87021 8.1875 6 8.1875C6.17405 8.1875 6.34097 8.25664 6.46404 8.37971C6.58711 8.50278 6.65625 8.6697 6.65625 8.84375ZM6 2.9375C4.7936 2.9375 3.8125 3.8207 3.8125 4.90625V5.125C3.8125 5.24103 3.8586 5.35231 3.94064 5.43436C4.02269 5.51641 4.13397 5.5625 4.25 5.5625C4.36603 5.5625 4.47731 5.51641 4.55936 5.43436C4.64141 5.35231 4.6875 5.24103 4.6875 5.125V4.90625C4.6875 4.30469 5.27649 3.8125 6 3.8125C6.72352 3.8125 7.3125 4.30469 7.3125 4.90625C7.3125 5.50781 6.72352 6 6 6C5.88397 6 5.77269 6.04609 5.69064 6.12814C5.6086 6.21019 5.5625 6.32147 5.5625 6.4375V6.875C5.5625 6.99103 5.6086 7.10231 5.69064 7.18436C5.77269 7.26641 5.88397 7.3125 6 7.3125C6.11603 7.3125 6.22731 7.26641 6.30936 7.18436C6.39141 7.10231 6.4375 6.99103 6.4375 6.875V6.83562C7.435 6.65242 8.1875 5.85672 8.1875 4.90625C8.1875 3.8207 7.20641 2.9375 6 2.9375ZM11.6875 6C11.6875 7.12488 11.3539 8.2245 10.729 9.1598C10.104 10.0951 9.21577 10.8241 8.17651 11.2546C7.13726 11.685 5.99369 11.7977 4.89043 11.5782C3.78716 11.3588 2.77374 10.8171 1.97833 10.0217C1.18292 9.22626 0.64124 8.21284 0.421786 7.10958C0.202333 6.00631 0.314964 4.86274 0.745438 3.82349C1.17591 2.78423 1.90489 1.89597 2.8402 1.27102C3.7755 0.646066 4.87512 0.3125 6 0.3125C7.50793 0.314092 8.95364 0.913821 10.0199 1.98009C11.0862 3.04636 11.6859 4.49207 11.6875 6ZM10.8125 6C10.8125 5.04818 10.5303 4.11773 10.0014 3.32632C9.47264 2.53491 8.72104 1.91808 7.84167 1.55383C6.9623 1.18958 5.99466 1.09428 5.06113 1.27997C4.1276 1.46566 3.27009 1.92401 2.59705 2.59705C1.92401 3.27009 1.46566 4.12759 1.27997 5.06113C1.09428 5.99466 1.18959 6.96229 1.55383 7.84166C1.91808 8.72103 2.53491 9.47264 3.32632 10.0014C4.11773 10.5303 5.04818 10.8125 6 10.8125C7.27591 10.8111 8.49915 10.3036 9.40135 9.40135C10.3036 8.49915 10.8111 7.27591 10.8125 6Z" fill="#737373"/>
</svg>
