<svg width="24" height="24" viewBox="0 0 24 24" fill="none" xmlns="http://www.w3.org/2000/svg">
<g clip-path="url(#clip0_1722_7022)">
<path d="M21.7138 10.48L19.4805 9.81334C19.3261 9.27422 19.1137 8.75341 18.8471 8.26001L19.9405 6.21334C19.9815 6.13609 19.9965 6.04767 19.9833 5.9612C19.9701 5.87473 19.9294 5.79483 19.8671 5.73334L18.2738 4.13334C18.2123 4.07112 18.1324 4.03038 18.0459 4.01717C17.9595 4.00396 17.8711 4.01899 17.7938 4.06001L15.7605 5.14668C15.2622 4.86712 14.7346 4.64354 14.1871 4.48001L13.5205 2.27334C13.4923 2.19202 13.439 2.12174 13.3683 2.07263C13.2976 2.02351 13.2132 1.99808 13.1271 2.00001H10.8738C10.7872 2.00041 10.703 2.02843 10.6335 2.07999C10.564 2.13155 10.5127 2.20396 10.4871 2.28668L9.82047 4.48668C9.26848 4.64933 8.73631 4.87293 8.2338 5.15334L6.2338 4.07334C6.15655 4.03232 6.06812 4.0173 5.98166 4.03051C5.89519 4.04372 5.81528 4.08446 5.7538 4.14668L4.1338 5.72668C4.07158 5.78816 4.03084 5.86806 4.01763 5.95453C4.00442 6.041 4.01944 6.12942 4.06047 6.20668L5.14047 8.20668C4.86051 8.70707 4.63692 9.23698 4.4738 9.78668L2.26714 10.4533C2.18442 10.4789 2.11201 10.5302 2.06045 10.5997C2.00889 10.6693 1.98087 10.7534 1.98047 10.84V13.0933C1.98087 13.1799 2.00889 13.2641 2.06045 13.3336C2.11201 13.4032 2.18442 13.4545 2.26714 13.48L4.48714 14.1467C4.65203 14.6872 4.87559 15.2081 5.1538 15.7L4.06047 17.7933C4.01944 17.8706 4.00442 17.959 4.01763 18.0455C4.03084 18.132 4.07158 18.2119 4.1338 18.2733L5.72714 19.8667C5.78862 19.9289 5.86852 19.9696 5.95499 19.9828C6.04146 19.9961 6.12988 19.981 6.20714 19.94L8.26714 18.84C8.75445 19.103 9.26848 19.313 9.80047 19.4667L10.4671 21.7133C10.4927 21.7961 10.544 21.8685 10.6135 21.92C10.683 21.9716 10.7672 21.9996 10.8538 22H13.1071C13.1937 21.9996 13.2779 21.9716 13.3474 21.92C13.417 21.8685 13.4683 21.7961 13.4938 21.7133L14.1605 19.46C14.6879 19.3056 15.1974 19.0955 15.6805 18.8333L17.7538 19.94C17.8311 19.981 17.9195 19.9961 18.0059 19.9828C18.0924 19.9696 18.1723 19.9289 18.2338 19.8667L19.8271 18.2733C19.8894 18.2119 19.9301 18.132 19.9433 18.0455C19.9565 17.959 19.9415 17.8706 19.9005 17.7933L18.7938 15.7267C19.0587 15.2418 19.271 14.73 19.4271 14.2L21.6738 13.5333C21.7565 13.5078 21.8289 13.4565 21.8805 13.387C21.932 13.3174 21.9601 13.2332 21.9605 13.1467V10.8733C21.9644 10.7904 21.9429 10.7083 21.8988 10.638C21.8547 10.5677 21.7901 10.5126 21.7138 10.48ZM12.0005 15.6667C11.2753 15.6667 10.5664 15.4516 9.96338 15.0487C9.3604 14.6458 8.89043 14.0732 8.61291 13.4032C8.33539 12.7332 8.26278 11.9959 8.40426 11.2847C8.54574 10.5734 8.89495 9.92008 9.40774 9.40729C9.92054 8.89449 10.5739 8.54528 11.2851 8.4038C11.9964 8.26232 12.7336 8.33493 13.4036 8.61245C14.0736 8.88997 14.6463 9.35994 15.0492 9.96292C15.4521 10.5659 15.6671 11.2748 15.6671 12C15.6671 12.9725 15.2808 13.9051 14.5932 14.5927C13.9056 15.2804 12.9729 15.6667 12.0005 15.6667Z" fill="#04839F"/>
</g>
<defs>
<clipPath id="clip0_1722_7022">
<rect width="24" height="24" fill="white"/>
</clipPath>
</defs>
</svg>
