<svg width="24" height="25" viewBox="0 0 24 25" fill="none" xmlns="http://www.w3.org/2000/svg">
<path d="M10.1351 21.5L9.77306 18.608C9.45372 18.5113 9.10872 18.36 8.73806 18.154C8.36672 17.9473 8.05072 17.726 7.79006 17.49L5.12306 18.625L3.25806 15.375L5.56306 13.637C5.53372 13.4557 5.50939 13.269 5.49006 13.077C5.47139 12.8857 5.46206 12.6997 5.46206 12.519C5.46206 12.351 5.47139 12.1743 5.49006 11.989C5.50872 11.8037 5.53306 11.595 5.56306 11.363L3.25806 9.625L5.12306 6.413L7.77106 7.53C8.06972 7.28133 8.39306 7.057 8.74106 6.857C9.08772 6.657 9.42539 6.50233 9.75406 6.393L10.1341 3.5H13.8651L14.2271 6.412C14.6104 6.546 14.9491 6.70033 15.2431 6.875C15.5377 7.04967 15.8407 7.26767 16.1521 7.529L18.8771 6.413L20.7421 9.625L18.3601 11.421C18.4147 11.6277 18.4454 11.817 18.4521 11.989C18.4587 12.1623 18.4621 12.3327 18.4621 12.5C18.4621 12.6553 18.4554 12.819 18.4421 12.991C18.4294 13.1637 18.4001 13.3723 18.3541 13.617L20.6981 15.375L18.8331 18.625L16.1521 17.471C15.8407 17.7323 15.5274 17.9567 15.2121 18.144C14.8961 18.3313 14.5677 18.4793 14.2271 18.588L13.8651 21.5H10.1351ZM11.0001 20.5H12.9561L13.3251 17.792C13.8291 17.6587 14.2824 17.4757 14.6851 17.243C15.0884 17.0103 15.4991 16.6917 15.9171 16.287L18.4121 17.35L19.4061 15.65L17.2171 14.006C17.3004 13.7213 17.3557 13.4593 17.3831 13.22C17.4097 12.9813 17.4231 12.7413 17.4231 12.5C17.4231 12.2467 17.4097 12.0067 17.3831 11.78C17.3564 11.5533 17.3011 11.3043 17.2171 11.033L19.4441 9.35L18.4501 7.65L15.8981 8.72C15.5954 8.38733 15.1977 8.076 14.7051 7.786C14.2124 7.496 13.7457 7.30333 13.3051 7.208L13.0001 4.5H11.0061L10.6941 7.188C10.1901 7.296 9.72672 7.46933 9.30406 7.708C8.88206 7.948 8.46206 8.27667 8.04406 8.694L5.55006 7.65L4.55606 9.35L6.72506 10.97C6.64172 11.194 6.58339 11.4373 6.55006 11.7C6.51672 11.9627 6.50006 12.236 6.50006 12.52C6.50006 12.7733 6.51672 13.025 6.55006 13.275C6.58339 13.525 6.63539 13.7683 6.70606 14.005L4.55606 15.65L5.55006 17.35L8.02506 16.3C8.41706 16.696 8.82439 17.0137 9.24706 17.253C9.66972 17.4923 10.1457 17.6787 10.6751 17.812L11.0001 20.5ZM11.9731 15C12.6704 15 13.2614 14.7577 13.7461 14.273C14.2307 13.7883 14.4731 13.1973 14.4731 12.5C14.4731 11.8027 14.2307 11.2117 13.7461 10.727C13.2614 10.2423 12.6704 10 11.9731 10C11.2717 10 10.6797 10.2423 10.1971 10.727C9.71439 11.2117 9.47306 11.8027 9.47306 12.5C9.47306 13.1973 9.71439 13.7883 10.1971 14.273C10.6797 14.7577 11.2717 15 11.9731 15Z" fill="#F7F7F7"/>
</svg>
