<svg width="20" height="21" viewBox="0 0 20 21" fill="none" xmlns="http://www.w3.org/2000/svg">
<path d="M9.89518 2.79175C10.1827 2.79175 10.416 3.02508 10.416 3.31258V9.87508H16.9785C17.1166 9.87508 17.2491 9.92995 17.3468 10.0276C17.4445 10.1253 17.4993 10.2578 17.4993 10.3959C17.4993 10.534 17.4445 10.6665 17.3468 10.7642C17.2491 10.8619 17.1166 10.9167 16.9785 10.9167H10.416V17.4792C10.416 17.6174 10.3611 17.7499 10.2635 17.8475C10.1658 17.9452 10.0333 18.0001 9.89518 18.0001C9.75705 18.0001 9.62457 17.9452 9.5269 17.8475C9.42922 17.7499 9.37435 17.6174 9.37435 17.4792V10.9167H2.81185C2.67372 10.9167 2.54124 10.8619 2.44356 10.7642C2.34589 10.6665 2.29102 10.534 2.29102 10.3959C2.29102 10.2578 2.34589 10.1253 2.44356 10.0276C2.54124 9.92995 2.67372 9.87508 2.81185 9.87508H9.37435V3.31258C9.37435 3.02508 9.60768 2.79175 9.89518 2.79175Z" fill="#04839F"/>
</svg>
