<svg width="41" height="40" viewBox="0 0 41 40" fill="none" xmlns="http://www.w3.org/2000/svg">
<path d="M16.8144 12.3141C11.3287 8.5712 6.21442 11.4283 1.92871 15.8283L11.4144 21.5426M28.1859 23.6855C31.9287 29.1712 29.0716 34.2855 24.6716 38.5712L18.9573 29.0855" stroke="black" stroke-width="1.71429" stroke-linecap="round" stroke-linejoin="round"/>
<path d="M15.5855 14.3428L26.1569 24.9143M11.4141 21.5143L18.9855 29.0857C25.0426 25.4571 31.9283 21.9428 35.0712 18.6857C41.8712 11.8857 37.9283 2.57142 37.9283 2.57142C37.9283 2.57142 28.6141 -1.37144 21.8141 5.42856C18.5569 8.57142 15.0141 15.4857 11.4141 21.5143Z" stroke="black" stroke-width="1.71429" stroke-linecap="round" stroke-linejoin="round"/>
<path d="M30.5001 11.4284C30.879 11.4284 31.2424 11.2779 31.5103 11.01C31.7782 10.7421 31.9287 10.3787 31.9287 9.99986C31.9287 9.62098 31.7782 9.25762 31.5103 8.98971C31.2424 8.7218 30.879 8.57129 30.5001 8.57129C30.1213 8.57129 29.7579 8.7218 29.49 8.98971C29.2221 9.25762 29.0716 9.62098 29.0716 9.99986C29.0716 10.3787 29.2221 10.7421 29.49 11.01C29.7579 11.2779 30.1213 11.4284 30.5001 11.4284ZM11.0144 35.5427C9.35728 37.1427 1.92871 38.5713 1.92871 38.5713C1.92871 38.5713 3.35728 31.1427 4.95728 29.4856C5.54897 28.853 6.31832 28.4145 7.16407 28.2276C8.00982 28.0408 8.89233 28.1144 9.69543 28.4388C10.4985 28.7632 11.1846 29.3231 11.6633 30.045C12.142 30.7668 12.3909 31.6167 12.3773 32.4827C12.3668 33.0577 12.2408 33.6246 12.0066 34.1498C11.7725 34.6751 11.4351 35.1506 11.0144 35.5427Z" stroke="black" stroke-width="1.71429" stroke-linecap="round" stroke-linejoin="round"/>
</svg>
