<svg width="20" height="20" viewBox="0 0 20 20" fill="none" xmlns="http://www.w3.org/2000/svg">
<path fill-rule="evenodd" clip-rule="evenodd" d="M8.75 4.16675C8.75 3.83523 8.8817 3.51729 9.11612 3.28286C9.35054 3.04844 9.66848 2.91675 10 2.91675H10.0083C10.3399 2.91675 10.6578 3.04844 10.8922 3.28286C11.1266 3.51729 11.2583 3.83523 11.2583 4.16675V4.17508C11.2583 4.5066 11.1266 4.82454 10.8922 5.05896C10.6578 5.29339 10.3399 5.42508 10.0083 5.42508H10C9.66848 5.42508 9.35054 5.29339 9.11612 5.05896C8.8817 4.82454 8.75 4.5066 8.75 4.17508V4.16675ZM8.75 10.0001C8.75 9.66856 8.8817 9.35062 9.11612 9.1162C9.35054 8.88178 9.66848 8.75008 10 8.75008H10.0083C10.3399 8.75008 10.6578 8.88178 10.8922 9.1162C11.1266 9.35062 11.2583 9.66856 11.2583 10.0001V10.0084C11.2583 10.3399 11.1266 10.6579 10.8922 10.8923C10.6578 11.1267 10.3399 11.2584 10.0083 11.2584H10C9.66848 11.2584 9.35054 11.1267 9.11612 10.8923C8.8817 10.6579 8.75 10.3399 8.75 10.0084V10.0001ZM10 14.5834C9.66848 14.5834 9.35054 14.7151 9.11612 14.9495C8.8817 15.184 8.75 15.5019 8.75 15.8334V15.8417C8.75 16.1733 8.8817 16.4912 9.11612 16.7256C9.35054 16.9601 9.66848 17.0917 10 17.0917H10.0083C10.3399 17.0917 10.6578 16.9601 10.8922 16.7256C11.1266 16.4912 11.2583 16.1733 11.2583 15.8417V15.8334C11.2583 15.5019 11.1266 15.184 10.8922 14.9495C10.6578 14.7151 10.3399 14.5834 10.0083 14.5834H10Z" fill="#252525"/>
</svg>
