<svg width="64" height="64" viewBox="0 0 64 64" fill="none" xmlns="http://www.w3.org/2000/svg">
<path d="M26.6663 32C32.5597 32 37.333 27.2267 37.333 21.3333C37.333 15.44 32.5597 10.6667 26.6663 10.6667C20.773 10.6667 15.9997 15.44 15.9997 21.3333C15.9997 27.2267 20.773 32 26.6663 32ZM26.6663 16C28.0808 16 29.4374 16.5619 30.4376 17.5621C31.4378 18.5623 31.9997 19.9188 31.9997 21.3333C31.9997 22.7478 31.4378 24.1044 30.4376 25.1046C29.4374 26.1048 28.0808 26.6667 26.6663 26.6667C23.7063 26.6667 21.333 24.2933 21.333 21.3333C21.333 18.3733 23.733 16 26.6663 16ZM31.9997 53.3333H5.33301V45.3333C5.33301 38.2133 19.5463 34.6667 26.6663 34.6667C29.093 34.6667 32.3463 35.0933 35.5997 35.92C35.3597 36.8 35.1997 37.7333 35.1997 38.6667V41.04C32.5863 40.2667 29.5997 39.7333 26.6663 39.7333C18.7463 39.7333 10.3997 43.6267 10.3997 45.3333V48.2667H31.9997V53.3333ZM55.4663 45.3333H43.9997V38.6667C43.9997 36.5333 45.8663 35.2 47.9997 35.2C50.133 35.2 51.9997 36.5333 51.9997 38.6667V40H55.4663V38.6667C55.4663 34.9333 51.733 32 47.9997 32C44.2663 32 40.533 34.9333 40.533 38.6667V45.3333C38.933 45.3333 37.333 46.9333 37.333 48.5333V57.8667C37.333 59.7333 38.933 61.3333 40.533 61.3333H55.1997C57.0663 61.3333 58.6663 59.7333 58.6663 58.1333V48.8C58.6663 46.9333 57.0663 45.3333 55.4663 45.3333Z" fill="#04839F"/>
</svg>
