<svg width="64" height="64" viewBox="0 0 64 64" fill="none" xmlns="http://www.w3.org/2000/svg">
<path d="M26.6668 10.6667C23.8379 10.6667 21.1247 11.7905 19.1244 13.7909C17.124 15.7912 16.0002 18.5043 16.0002 21.3333C16.0002 24.1623 17.124 26.8754 19.1244 28.8758C21.1247 30.8762 23.8379 32 26.6668 32C29.4958 32 32.2089 30.8762 34.2093 28.8758C36.2097 26.8754 37.3335 24.1623 37.3335 21.3333C37.3335 18.5043 36.2097 15.7912 34.2093 13.7909C32.2089 11.7905 29.4958 10.6667 26.6668 10.6667ZM26.6668 16C28.0813 16 29.4379 16.5619 30.4381 17.5621C31.4383 18.5623 32.0002 19.9188 32.0002 21.3333C32.0002 22.7478 31.4383 24.1044 30.4381 25.1046C29.4379 26.1048 28.0813 26.6667 26.6668 26.6667C25.2523 26.6667 23.8958 26.1048 22.8956 25.1046C21.8954 24.1044 21.3335 22.7478 21.3335 21.3333C21.3335 19.9188 21.8954 18.5623 22.8956 17.5621C23.8958 16.5619 25.2523 16 26.6668 16ZM26.6668 34.6667C19.5468 34.6667 5.3335 38.2133 5.3335 45.3333V53.3333H30.6668C29.9957 51.7174 29.5731 50.0091 29.4135 48.2667H10.4002V45.3333C10.4002 43.6267 18.7468 39.7333 26.6668 39.7333C28.0002 39.7333 29.3335 39.8667 30.6668 40.08C31.3511 38.3961 32.296 36.8303 33.4668 35.44C30.9602 34.9333 28.5602 34.6667 26.6668 34.6667ZM46.6668 34.6667C40.0002 34.6667 34.6668 40 34.6668 46.6667C34.6668 53.3333 40.0002 58.6667 46.6668 58.6667C53.3335 58.6667 58.6668 53.3333 58.6668 46.6667C58.6668 40 53.3335 34.6667 46.6668 34.6667ZM46.6668 38.6667C51.0935 38.6667 54.6668 42.24 54.6668 46.6667C54.6668 48.16 54.2668 49.5467 53.5468 50.6667L42.6668 39.7867C43.7868 39.0667 45.1735 38.6667 46.6668 38.6667ZM39.7868 42.6667L50.6668 53.5467C49.5468 54.2667 48.1602 54.6667 46.6668 54.6667C42.2402 54.6667 38.6668 51.0933 38.6668 46.6667C38.6668 45.1733 39.0668 43.7867 39.7868 42.6667Z" fill="#CC0000"/>
</svg>
