<svg width="24" height="24" viewBox="0 0 24 24" fill="none" xmlns="http://www.w3.org/2000/svg">
<path d="M8.14293 4.28571C7.6364 4.28571 7.13483 4.38547 6.66686 4.57931C6.19889 4.77315 5.77368 5.05727 5.41551 5.41544C5.05735 5.77361 4.77323 6.19881 4.57939 6.66678C4.38555 7.13475 4.28578 7.63632 4.28578 8.14285C4.28578 8.64938 4.38555 9.15094 4.57939 9.61891C4.77323 10.0869 5.05735 10.5121 5.41551 10.8703C5.77368 11.2284 6.19889 11.5125 6.66686 11.7064C7.13483 11.9002 7.6364 12 8.14293 12C9.1659 12 10.147 11.5936 10.8703 10.8703C11.5937 10.1469 12.0001 9.16583 12.0001 8.14285C12.0001 7.11987 11.5937 6.13879 10.8703 5.41544C10.147 4.69208 9.1659 4.28571 8.14293 4.28571ZM5.5715 8.14285C5.5715 7.80516 5.63801 7.47079 5.76724 7.15881C5.89646 6.84683 6.08587 6.56335 6.32465 6.32457C6.56343 6.08579 6.8469 5.89638 7.15888 5.76716C7.47086 5.63793 7.80524 5.57142 8.14293 5.57142C8.48061 5.57142 8.81499 5.63793 9.12697 5.76716C9.43895 5.89638 9.72242 6.08579 9.9612 6.32457C10.2 6.56335 10.3894 6.84683 10.5186 7.15881C10.6478 7.47079 10.7144 7.80516 10.7144 8.14285C10.7144 8.82483 10.4434 9.47889 9.9612 9.96112C9.47897 10.4434 8.82491 10.7143 8.14293 10.7143C7.46094 10.7143 6.80689 10.4434 6.32465 9.96112C5.84242 9.47889 5.5715 8.82483 5.5715 8.14285ZM17.1429 5.99999C16.3473 5.99999 15.5842 6.31606 15.0216 6.87867C14.459 7.44128 14.1429 8.20434 14.1429 8.99999C14.1429 9.79564 14.459 10.5587 15.0216 11.1213C15.5842 11.6839 16.3473 12 17.1429 12C17.9386 12 18.7016 11.6839 19.2642 11.1213C19.8269 10.5587 20.1429 9.79564 20.1429 8.99999C20.1429 8.20434 19.8269 7.44128 19.2642 6.87867C18.7016 6.31606 17.9386 5.99999 17.1429 5.99999ZM15.4286 8.99999C15.4286 8.54533 15.6093 8.1093 15.9307 7.78781C16.2522 7.46632 16.6883 7.28571 17.1429 7.28571C17.5976 7.28571 18.0336 7.46632 18.3551 7.78781C18.6766 8.1093 18.8572 8.54533 18.8572 8.99999C18.8572 9.45465 18.6766 9.89068 18.3551 10.2122C18.0336 10.5337 17.5976 10.7143 17.1429 10.7143C16.6883 10.7143 16.2522 10.5337 15.9307 10.2122C15.6093 9.89068 15.4286 9.45465 15.4286 8.99999ZM1.71436 15.6428C1.71436 15.1314 1.91754 14.6408 2.27922 14.2791C2.6409 13.9175 3.13144 13.7143 3.64293 13.7143H12.6429C13.1544 13.7143 13.645 13.9175 14.0066 14.2791C14.3683 14.6408 14.5715 15.1314 14.5715 15.6428V16.098C14.5708 16.1674 14.566 16.2366 14.5569 16.3054C14.5376 16.4822 14.5061 16.6575 14.4626 16.83C14.3207 17.3928 14.068 17.9216 13.7195 18.3857C12.8504 19.5454 11.1926 20.5714 8.14293 20.5714C5.09321 20.5714 3.4355 19.5454 2.56636 18.3857C2.21813 17.9215 1.96579 17.3927 1.82407 16.83C1.76797 16.6059 1.73212 16.3773 1.71693 16.1468L1.71436 16.098V15.6428ZM3.00007 16.0671V16.0826L3.00778 16.1683C3.01636 16.2488 3.0335 16.3697 3.07121 16.518C3.17115 16.9145 3.34888 17.2871 3.59407 17.6143C4.17178 18.3831 5.40693 19.2857 8.14293 19.2857C10.8789 19.2857 12.1141 18.3831 12.6909 17.6143C12.9909 17.2148 13.1401 16.8154 13.2138 16.518C13.2499 16.3752 13.2737 16.2295 13.2849 16.0826L13.2858 16.0671V15.6428C13.2858 15.4724 13.2181 15.3088 13.0975 15.1883C12.9769 15.0677 12.8134 15 12.6429 15H3.64293C3.47243 15 3.30892 15.0677 3.18836 15.1883C3.0678 15.3088 3.00007 15.4724 3.00007 15.6428V16.0671ZM14.6572 18.5314C15.3198 18.7346 16.1375 18.8571 17.1412 18.8571C19.5155 18.8571 20.8424 18.1748 21.5632 17.352C21.851 17.0261 22.0645 16.6415 22.1889 16.2248C22.2376 16.0565 22.2689 15.8836 22.2824 15.7088L22.2841 15.6686V15.6428C22.2841 15.1314 22.0809 14.6408 21.7192 14.2791C21.3575 13.9175 20.867 13.7143 20.3555 13.7143H14.6521C14.9898 14.0666 15.2366 14.508 15.3532 15H20.3564C20.5254 15 20.6876 15.0665 20.8079 15.1852C20.9282 15.304 20.997 15.4653 20.9992 15.6343L20.9949 15.6737C20.9864 15.7383 20.9729 15.8022 20.9546 15.8649C20.8823 16.1018 20.7595 16.3202 20.5946 16.5051C20.1909 16.968 19.2686 17.5714 17.1412 17.5714C16.3346 17.5714 15.7012 17.4848 15.2032 17.3511C15.0719 17.7661 14.8884 18.1627 14.6572 18.5314Z" fill="#FDFDFD"/>
</svg>
