<svg width="20" height="20" viewBox="0 0 20 20" fill="none" xmlns="http://www.w3.org/2000/svg">
<path d="M9.99984 8.33332C11.8408 8.33332 13.3332 6.84094 13.3332 4.99999C13.3332 3.15904 11.8408 1.66666 9.99984 1.66666C8.15889 1.66666 6.6665 3.15904 6.6665 4.99999C6.6665 6.84094 8.15889 8.33332 9.99984 8.33332Z" stroke="#CC0000" stroke-width="1.5"/>
<path d="M12.4999 11.1058C11.6793 10.9223 10.8408 10.8309 9.99992 10.8333C6.31825 10.8333 3.33325 12.5125 3.33325 14.5833C3.33325 16.6542 3.33325 18.3333 9.99992 18.3333C14.7391 18.3333 16.1091 17.485 16.5058 16.25" stroke="#CC0000" stroke-width="1.5"/>
<path d="M17.3574 10.9758C17.6669 11.2854 17.9124 11.6528 18.0799 12.0573C18.2475 12.4617 18.3337 12.8951 18.3337 13.3329C18.3337 13.7707 18.2475 14.2041 18.0799 14.6085C17.9124 15.013 17.6669 15.3804 17.3574 15.69C17.0478 15.9995 16.6803 16.2451 16.2759 16.4126C15.8715 16.5801 15.438 16.6663 15.0003 16.6663C14.5625 16.6663 14.1291 16.5801 13.7246 16.4126C13.3202 16.2451 12.9527 15.9995 12.6432 15.69L17.3565 10.9767M12.6424 15.69C12.0172 15.0648 11.666 14.217 11.666 13.3329C11.666 12.8951 11.7522 12.4617 11.9198 12.0573C12.0873 11.6528 12.3328 11.2854 12.6424 10.9758C12.9519 10.6663 13.3194 10.4207 13.7238 10.2532C14.1282 10.0857 14.5617 9.99948 14.9994 9.99948C15.8835 9.99948 16.7314 10.3507 17.3565 10.9758" stroke="#CC0000" stroke-width="1.5" stroke-linejoin="round"/>
</svg>
